<svg viewBox="0 0 157 27" fill="none" xmlns="http://www.w3.org/2000/svg">
<path d="M3.20117 20.0938C3.29492 21.1484 3.55859 21.957 3.99219 22.5195C4.78906 23.5391 6.17188 24.0488 8.14062 24.0488C9.3125 24.0488 10.3438 23.7969 11.2344 23.293C12.125 22.7773 12.5703 21.9863 12.5703 20.9199C12.5703 20.1113 12.2129 19.4961 11.498 19.0742C11.041 18.8164 10.1387 18.5176 8.79102 18.1777L6.27734 17.5449C4.67188 17.1465 3.48828 16.7012 2.72656 16.209C1.36719 15.3535 0.6875 14.1699 0.6875 12.6582C0.6875 10.877 1.32617 9.43555 2.60352 8.33398C3.89258 7.23242 5.62109 6.68164 7.78906 6.68164C10.625 6.68164 12.6699 7.51367 13.9238 9.17773C14.709 10.2324 15.0898 11.3691 15.0664 12.5879H12.0781C12.0195 11.873 11.7676 11.2227 11.3223 10.6367C10.5957 9.80469 9.33594 9.38867 7.54297 9.38867C6.34766 9.38867 5.43945 9.61719 4.81836 10.0742C4.20898 10.5312 3.9043 11.1348 3.9043 11.8848C3.9043 12.7051 4.30859 13.3613 5.11719 13.8535C5.58594 14.1465 6.27734 14.4043 7.19141 14.627L9.2832 15.1367C11.5566 15.6875 13.0801 16.2207 13.8535 16.7363C15.084 17.5449 15.6992 18.8164 15.6992 20.5508C15.6992 22.2266 15.0605 23.6738 13.7832 24.8926C12.5176 26.1113 10.584 26.7207 7.98242 26.7207C5.18164 26.7207 3.19531 26.0879 2.02344 24.8223C0.863281 23.5449 0.242188 21.9688 0.160156 20.0938H3.20117Z" fill="black"/>
<path d="M27.1602 6.75195C28.4961 6.75195 29.791 7.06836 31.0449 7.70117C32.2988 8.32227 33.2539 9.13086 33.9102 10.127C34.543 11.0762 34.9648 12.1836 35.1758 13.4492C35.3633 14.3164 35.457 15.6992 35.457 17.5977H21.6582C21.7168 19.5078 22.168 21.043 23.0117 22.2031C23.8555 23.3516 25.1621 23.9258 26.9316 23.9258C28.584 23.9258 29.9023 23.3809 30.8867 22.291C31.4492 21.6582 31.8477 20.9258 32.082 20.0938H35.1934C35.1113 20.7852 34.8359 21.5586 34.3672 22.4141C33.9102 23.2578 33.3945 23.9492 32.8203 24.4883C31.8594 25.4258 30.6699 26.0586 29.252 26.3867C28.4902 26.5742 27.6289 26.668 26.668 26.668C24.3242 26.668 22.3379 25.8184 20.709 24.1191C19.0801 22.4082 18.2656 20.0176 18.2656 16.9473C18.2656 13.9238 19.0859 11.4688 20.7266 9.58203C22.3672 7.69531 24.5117 6.75195 27.1602 6.75195ZM32.2051 15.084C32.0762 13.7129 31.7773 12.6172 31.3086 11.7969C30.4414 10.2734 28.9941 9.51172 26.9668 9.51172C25.5137 9.51172 24.2949 10.0391 23.3105 11.0938C22.3262 12.1367 21.8047 13.4668 21.7461 15.084H32.2051Z" fill="black"/>
<path d="M39.3594 7.17383H42.3652V9.8457C43.2559 8.74414 44.1992 7.95312 45.1953 7.47266C46.1914 6.99219 47.2988 6.75195 48.5176 6.75195C51.1895 6.75195 52.9941 7.68359 53.9316 9.54688C54.4473 10.5664 54.7051 12.0254 54.7051 13.9238V26H51.4883V14.1348C51.4883 12.9863 51.3184 12.0605 50.9785 11.3574C50.416 10.1855 49.3965 9.59961 47.9199 9.59961C47.1699 9.59961 46.5547 9.67578 46.0742 9.82812C45.207 10.0859 44.4453 10.6016 43.7891 11.375C43.2617 11.9961 42.916 12.6406 42.752 13.3086C42.5996 13.9648 42.5234 14.9082 42.5234 16.1387V26H39.3594V7.17383Z" fill="black"/>
<path d="M60.0312 1.91797H63.2305V7.17383H66.2363V9.75781H63.2305V22.0449C63.2305 22.7012 63.4531 23.1406 63.8984 23.3633C64.1445 23.4922 64.5547 23.5566 65.1289 23.5566C65.2812 23.5566 65.4453 23.5566 65.6211 23.5566C65.7969 23.5449 66.002 23.5273 66.2363 23.5039V26C65.873 26.1055 65.4922 26.1816 65.0938 26.2285C64.707 26.2754 64.2852 26.2988 63.8281 26.2988C62.3516 26.2988 61.3496 25.9238 60.8223 25.1738C60.2949 24.4121 60.0312 23.4277 60.0312 22.2207V9.75781H57.4824V7.17383H60.0312V1.91797Z" fill="black"/>
<path d="M69.418 7.26172H72.6348V26H69.418V7.26172ZM69.418 0.177734H72.6348V3.76367H69.418V0.177734Z" fill="black"/>
<path d="M77.5215 7.17383H80.5273V10.4258C80.7734 9.79297 81.377 9.02539 82.3379 8.12305C83.2988 7.20898 84.4062 6.75195 85.6602 6.75195C85.7188 6.75195 85.8184 6.75781 85.959 6.76953C86.0996 6.78125 86.3398 6.80469 86.6797 6.83984V10.1797C86.4922 10.1445 86.3164 10.1211 86.1523 10.1094C86 10.0977 85.8301 10.0918 85.6426 10.0918C84.0488 10.0918 82.8242 10.6074 81.9688 11.6387C81.1133 12.6582 80.6855 13.8359 80.6855 15.1719V26H77.5215V7.17383Z" fill="black"/>
<path d="M91.8477 20.9902C91.8477 21.9043 92.1816 22.625 92.8496 23.1523C93.5176 23.6797 94.3086 23.9434 95.2227 23.9434C96.3359 23.9434 97.4141 23.6855 98.457 23.1699C100.215 22.3145 101.094 20.9141 101.094 18.9688V16.4199C100.707 16.666 100.209 16.8711 99.5996 17.0352C98.9902 17.1992 98.3926 17.3164 97.8066 17.3867L95.8906 17.6328C94.7422 17.7852 93.8809 18.0254 93.3066 18.3535C92.334 18.9043 91.8477 19.7832 91.8477 20.9902ZM99.5117 14.5918C100.238 14.498 100.725 14.1934 100.971 13.6777C101.111 13.3965 101.182 12.9922 101.182 12.4648C101.182 11.3867 100.795 10.6074 100.021 10.127C99.2598 9.63477 98.1641 9.38867 96.7344 9.38867C95.082 9.38867 93.9102 9.83398 93.2188 10.7246C92.832 11.2168 92.5801 11.9492 92.4629 12.9219H89.5098C89.5684 10.6016 90.3184 8.99023 91.7598 8.08789C93.2129 7.17383 94.8945 6.7168 96.8047 6.7168C99.0195 6.7168 100.818 7.13867 102.201 7.98242C103.572 8.82617 104.258 10.1387 104.258 11.9199V22.7656C104.258 23.0938 104.322 23.3574 104.451 23.5566C104.592 23.7559 104.879 23.8555 105.312 23.8555C105.453 23.8555 105.611 23.8496 105.787 23.8379C105.963 23.8145 106.15 23.7852 106.35 23.75V26.0879C105.857 26.2285 105.482 26.3164 105.225 26.3516C104.967 26.3867 104.615 26.4043 104.17 26.4043C103.08 26.4043 102.289 26.0176 101.797 25.2441C101.539 24.834 101.357 24.2539 101.252 23.5039C100.607 24.3477 99.6816 25.0801 98.4746 25.7012C97.2676 26.3223 95.9375 26.6328 94.4844 26.6328C92.7383 26.6328 91.3086 26.1055 90.1953 25.0508C89.0938 23.9844 88.543 22.6543 88.543 21.0605C88.543 19.3145 89.0879 17.9609 90.1777 17C91.2676 16.0391 92.6973 15.4473 94.4668 15.2246L99.5117 14.5918Z" fill="black"/>
<path d="M109.461 7.17383H112.59V9.8457C113.34 8.91992 114.02 8.24609 114.629 7.82422C115.672 7.10938 116.855 6.75195 118.18 6.75195C119.68 6.75195 120.887 7.12109 121.801 7.85938C122.316 8.28125 122.785 8.90234 123.207 9.72266C123.91 8.71484 124.736 7.9707 125.686 7.49023C126.635 6.99805 127.701 6.75195 128.885 6.75195C131.416 6.75195 133.139 7.66602 134.053 9.49414C134.545 10.4785 134.791 11.8027 134.791 13.4668V26H131.504V12.9219C131.504 11.668 131.188 10.8066 130.555 10.3379C129.934 9.86914 129.172 9.63477 128.27 9.63477C127.027 9.63477 125.955 10.0508 125.053 10.8828C124.162 11.7148 123.717 13.1035 123.717 15.0488V26H120.5V13.7129C120.5 12.4355 120.348 11.5039 120.043 10.918C119.562 10.0391 118.666 9.59961 117.354 9.59961C116.158 9.59961 115.068 10.0625 114.084 10.9883C113.111 11.9141 112.625 13.5898 112.625 16.0156V26H109.461V7.17383Z" fill="black"/>
<path d="M141.875 20.9902C141.875 21.9043 142.209 22.625 142.877 23.1523C143.545 23.6797 144.336 23.9434 145.25 23.9434C146.363 23.9434 147.441 23.6855 148.484 23.1699C150.242 22.3145 151.121 20.9141 151.121 18.9688V16.4199C150.734 16.666 150.236 16.8711 149.627 17.0352C149.018 17.1992 148.42 17.3164 147.834 17.3867L145.918 17.6328C144.77 17.7852 143.908 18.0254 143.334 18.3535C142.361 18.9043 141.875 19.7832 141.875 20.9902ZM149.539 14.5918C150.266 14.498 150.752 14.1934 150.998 13.6777C151.139 13.3965 151.209 12.9922 151.209 12.4648C151.209 11.3867 150.822 10.6074 150.049 10.127C149.287 9.63477 148.191 9.38867 146.762 9.38867C145.109 9.38867 143.938 9.83398 143.246 10.7246C142.859 11.2168 142.607 11.9492 142.49 12.9219H139.537C139.596 10.6016 140.346 8.99023 141.787 8.08789C143.24 7.17383 144.922 6.7168 146.832 6.7168C149.047 6.7168 150.846 7.13867 152.229 7.98242C153.6 8.82617 154.285 10.1387 154.285 11.9199V22.7656C154.285 23.0938 154.35 23.3574 154.479 23.5566C154.619 23.7559 154.906 23.8555 155.34 23.8555C155.48 23.8555 155.639 23.8496 155.814 23.8379C155.99 23.8145 156.178 23.7852 156.377 23.75V26.0879C155.885 26.2285 155.51 26.3164 155.252 26.3516C154.994 26.3867 154.643 26.4043 154.197 26.4043C153.107 26.4043 152.316 26.0176 151.824 25.2441C151.566 24.834 151.385 24.2539 151.279 23.5039C150.635 24.3477 149.709 25.0801 148.502 25.7012C147.295 26.3223 145.965 26.6328 144.512 26.6328C142.766 26.6328 141.336 26.1055 140.223 25.0508C139.121 23.9844 138.57 22.6543 138.57 21.0605C138.57 19.3145 139.115 17.9609 140.205 17C141.295 16.0391 142.725 15.4473 144.494 15.2246L149.539 14.5918Z" fill="black"/>
</svg>
