<svg width="230" height="53" viewBox="0 0 230 53" fill="none" xmlns="http://www.w3.org/2000/svg">
<path d="M14.2019 42.4455C11.6116 42.4455 9.08089 42.1673 6.60969 41.6107C4.16827 41.0248 2.15856 40.2486 0.580566 39.2819L3.97474 31.7243C5.46341 32.5738 7.13073 33.2622 8.97668 33.7895C10.8226 34.2875 12.5942 34.5365 14.2912 34.5365C15.7501 34.5365 16.7922 34.4046 17.4175 34.141C18.0427 33.8481 18.3553 33.4233 18.3553 32.8668C18.3553 32.2223 17.9385 31.739 17.1048 31.4168C16.301 31.0945 14.9611 30.743 13.0854 30.3622C10.6738 29.8642 8.66406 29.337 7.05629 28.7804C5.44853 28.1945 4.04917 27.2572 2.85824 25.9683C1.6673 24.6501 1.07183 22.8779 1.07183 20.6516C1.07183 18.7183 1.62264 16.9607 2.72426 15.3789C3.82587 13.7971 5.46341 12.5521 7.63688 11.644C9.84011 10.736 12.5048 10.2819 15.6311 10.2819C17.7747 10.2819 19.8738 10.5163 21.9281 10.9849C24.0123 11.4243 25.8433 12.0834 27.4213 12.9622L24.2505 20.4759C21.1838 18.9526 18.2809 18.191 15.5417 18.191C12.8323 18.191 11.4777 18.8354 11.4777 20.1243C11.4777 20.7395 11.8796 21.2082 12.6835 21.5304C13.4874 21.8233 14.8123 22.1455 16.6582 22.4971C19.0401 22.9365 21.0498 23.4491 22.6874 24.0349C24.3249 24.5915 25.7391 25.5142 26.9301 26.8031C28.1508 28.092 28.7611 29.8496 28.7611 32.0759C28.7611 34.0092 28.2103 35.7668 27.1087 37.3486C26.0071 38.9011 24.3547 40.1461 22.1514 41.0834C19.978 41.9915 17.3281 42.4455 14.2019 42.4455Z" fill="#111111"/>
<path d="M42.2586 34.844C43.3305 34.844 44.2237 34.7122 44.9383 34.4486C45.6826 34.1849 46.4865 33.7309 47.3499 33.0865L52.6198 38.3152C50.1784 40.893 46.6205 42.1819 41.946 42.1819C38.9985 42.1819 36.4082 41.6546 34.1752 40.6001C31.9421 39.5163 30.2153 38.0223 28.9946 36.1183C27.7739 34.2142 27.1635 32.0759 27.1635 29.7031C27.1635 27.3011 27.7739 25.1627 28.9946 23.288C30.2153 21.3839 31.8826 19.9046 33.9965 18.8501C36.1402 17.7955 38.537 17.2683 41.1868 17.2683C43.5984 17.2683 45.8166 17.7516 47.8412 18.7183C49.8658 19.6556 51.4735 21.0617 52.6645 22.9365C53.8554 24.7819 54.4509 26.9935 54.4509 29.5713L37.748 32.7349C38.4923 34.141 39.9959 34.844 42.2586 34.844ZM41.2315 24.0349C40.0703 24.0349 39.1175 24.3718 38.3732 25.0455C37.6586 25.7193 37.2269 26.7152 37.0781 28.0334L44.8936 26.5395C44.6256 25.7779 44.1641 25.1774 43.5091 24.738C42.8839 24.2693 42.1247 24.0349 41.2315 24.0349Z" fill="#111111"/>
<path d="M71.4807 17.2683C74.4878 17.2683 76.8995 18.1617 78.7157 19.9486C80.5616 21.7354 81.4846 24.4304 81.4846 28.0334V41.7425H71.3914V29.7471C71.3914 26.9935 70.394 25.6168 68.3992 25.6168C67.2678 25.6168 66.3448 26.0122 65.6302 26.8031C64.9454 27.5647 64.6031 28.7804 64.6031 30.4501V41.7425H54.5098V17.7077H64.1118V20.0804C65.0645 19.143 66.1662 18.44 67.4166 17.9713C68.6671 17.5026 70.0218 17.2683 71.4807 17.2683Z" fill="#111111"/>
<path d="M99.5339 40.9077C98.0155 41.7572 95.9463 42.1819 93.3262 42.1819C89.9022 42.1819 87.2673 41.3764 85.4213 39.7652C83.5754 38.1248 82.6524 35.6789 82.6524 32.4274V12.3031H92.7456V19.0259H97.7475V26.2759H92.7456V32.3395C92.7456 33.0718 92.9391 33.643 93.3262 34.0531C93.7132 34.4632 94.2194 34.6683 94.8446 34.6683C95.7081 34.6683 96.4673 34.4486 97.1223 34.0092L99.5339 40.9077Z" fill="#111111"/>
<path d="M98.9363 17.7077H109.029V41.7425H98.9363V17.7077ZM103.983 15.7743C102.167 15.7743 100.693 15.3056 99.5615 14.3683C98.4599 13.4016 97.9091 12.186 97.9091 10.7213C97.9091 9.25666 98.4599 8.05565 99.5615 7.11827C100.693 6.15161 102.167 5.66827 103.983 5.66827C105.829 5.66827 107.303 6.12231 108.404 7.0304C109.506 7.93848 110.057 9.11019 110.057 10.5455C110.057 12.0688 109.506 13.3284 108.404 14.3243C107.303 15.291 105.829 15.7743 103.983 15.7743Z" fill="#111111"/>
<path d="M119.979 20.3001C121.765 18.2789 124.4 17.2683 127.884 17.2683V26.0562C127.08 25.939 126.336 25.8804 125.651 25.8804C122.197 25.8804 120.47 27.6087 120.47 31.0652V41.7425H110.377V17.7077H119.979V20.3001Z" fill="#111111"/>
<path d="M154.196 17.7077V41.7425H144.594V39.7652C143.135 41.3764 140.902 42.1819 137.895 42.1819C135.752 42.1819 133.772 41.6839 131.956 40.688C130.169 39.6627 128.74 38.1981 127.668 36.294C126.626 34.39 126.105 32.193 126.105 29.7031C126.105 27.2132 126.626 25.0309 127.668 23.1562C128.74 21.2521 130.169 19.8021 131.956 18.8062C133.772 17.7809 135.752 17.2683 137.895 17.2683C140.605 17.2683 142.674 17.9567 144.103 19.3334V17.7077H154.196ZM140.307 34.4486C141.468 34.4486 142.421 34.0385 143.165 33.2183C143.91 32.3688 144.282 31.1971 144.282 29.7031C144.282 28.2092 143.91 27.0521 143.165 26.2319C142.421 25.4117 141.468 25.0016 140.307 25.0016C139.146 25.0016 138.193 25.4117 137.449 26.2319C136.704 27.0521 136.332 28.2092 136.332 29.7031C136.332 31.1971 136.704 32.3688 137.449 33.2183C138.193 34.0385 139.146 34.4486 140.307 34.4486Z" fill="#111111"/>
<path d="M187.879 17.2683C190.826 17.2683 193.178 18.1617 194.935 19.9486C196.721 21.7354 197.615 24.4304 197.615 28.0334V41.7425H187.521V29.7471C187.521 26.9935 186.613 25.6168 184.797 25.6168C183.844 25.6168 183.07 25.9683 182.475 26.6713C181.909 27.3743 181.626 28.4875 181.626 30.0107V41.7425H171.533V29.7471C171.533 26.9935 170.625 25.6168 168.809 25.6168C167.856 25.6168 167.082 25.9683 166.487 26.6713C165.921 27.3743 165.638 28.4875 165.638 30.0107V41.7425H155.545V17.7077H165.147V19.9486C166.963 18.1617 169.27 17.2683 172.069 17.2683C173.707 17.2683 175.18 17.5759 176.49 18.191C177.8 18.7769 178.872 19.6849 179.706 20.9152C180.688 19.7435 181.879 18.8501 183.279 18.2349C184.678 17.5905 186.211 17.2683 187.879 17.2683Z" fill="#111111"/>
<path d="M226.099 17.7077V41.7425H216.497V39.7652C215.038 41.3764 212.805 42.1819 209.798 42.1819C207.655 42.1819 205.675 41.6839 203.858 40.688C202.072 39.6627 200.643 38.1981 199.571 36.294C198.529 34.39 198.008 32.193 198.008 29.7031C198.008 27.2132 198.529 25.0309 199.571 23.1562C200.643 21.2521 202.072 19.8021 203.858 18.8062C205.675 17.7809 207.655 17.2683 209.798 17.2683C212.508 17.2683 214.577 17.9567 216.006 19.3334V17.7077H226.099ZM212.21 34.4486C213.371 34.4486 214.324 34.0385 215.068 33.2183C215.812 32.3688 216.185 31.1971 216.185 29.7031C216.185 28.2092 215.812 27.0521 215.068 26.2319C214.324 25.4117 213.371 25.0016 212.21 25.0016C211.049 25.0016 210.096 25.4117 209.352 26.2319C208.607 27.0521 208.235 28.2092 208.235 29.7031C208.235 31.1971 208.607 32.3688 209.352 33.2183C210.096 34.0385 211.049 34.4486 212.21 34.4486Z" fill="#111111"/>
</svg>
