<?xml version="1.0" standalone="no"?>
<!DOCTYPE svg PUBLIC "-//W3C//DTD SVG 20010904//EN"
 "http://www.w3.org/TR/2001/REC-SVG-20010904/DTD/svg10.dtd">
<svg version="1.0" xmlns="http://www.w3.org/2000/svg"
 width="500.000000pt" height="500.000000pt" viewBox="0 0 500.000000 500.000000"
 preserveAspectRatio="xMidYMid meet">
<metadata>
Created by potrace 1.11, written by Peter Selinger 2001-2013
</metadata>
<g transform="translate(0.000000,500.000000) scale(0.100000,-0.100000)"
fill="#000000" stroke="none">
<path d="M2680 3878 c-129 -38 -282 -84 -340 -102 l-105 -32 0 -71 c0 -40 -2
-73 -5 -75 -3 -2 -77 -27 -165 -55 -179 -57 -695 -224 -880 -284 l-120 -39 0
-79 0 -79 152 53 153 54 1 -72 c0 -40 2 -148 4 -242 6 -297 7 -497 2 -501 -2
-2 -267 -93 -588 -201 -321 -108 -586 -200 -589 -204 -9 -13 -11 -149 -2 -149
4 0 48 13 97 30 49 16 94 30 100 30 8 0 12 -18 12 -47 0 -27 2 -160 3 -296 1
-137 1 -250 -1 -252 -2 -2 -74 -5 -159 -6 -85 -2 -160 -4 -166 -6 -5 -2 -11
-40 -12 -88 l-3 -85 153 -1 c996 -3 3004 -10 3727 -13 l913 -3 -6 86 c-4 47
-9 87 -10 89 -2 2 -94 3 -203 2 l-199 0 2 795 c1 438 4 798 7 801 2 3 57 -27
121 -66 64 -38 121 -70 125 -70 5 0 14 -7 21 -15 7 -8 15 -13 19 -11 3 2 6 46
5 98 l0 93 -880 522 c-483 287 -888 528 -899 535 -11 7 -27 16 -35 19 -8 4
-121 -25 -250 -63z m340 -198 c63 -37 131 -77 150 -88 34 -19 1012 -594 1089
-639 11 -7 13 -157 15 -863 l1 -855 -310 2 c-662 3 -816 6 -822 16 -3 5 -7 51
-9 101 -15 478 -18 617 -15 638 1 6 48 -10 144 -47 17 -7 18 -2 14 66 l-3 74
-205 97 c-112 54 -208 99 -214 101 -14 5 -17 1470 -2 1479 13 8 17 6 167 -82z
m-363 -158 c1 -38 14 -1009 16 -1228 l1 -122 124 -53 c67 -29 130 -58 140 -65
16 -11 17 -44 16 -405 l0 -394 -718 0 c-395 0 -722 3 -727 6 -10 6 -11 264 -4
1074 2 231 4 519 4 640 l1 221 113 36 c61 20 274 89 472 153 198 64 403 131
455 149 52 18 97 31 100 29 3 -3 6 -21 7 -41z m-1283 -1634 c-2 -156 -3 -360
-3 -455 l-1 -172 -412 4 c-227 2 -416 4 -421 4 -4 1 -6 145 -5 322 l3 321 40
13 c22 7 182 57 355 110 173 53 340 105 370 115 30 10 60 18 66 19 7 1 9 -87
8 -281z"/>
<path d="M3763 1891 c-9 -6 -11 -416 -2 -425 3 -3 100 -8 217 -11 169 -5 212
-3 212 7 1 7 0 87 -1 178 -1 91 -1 182 -1 203 0 27 -5 37 -17 38 -9 0 -95 2
-191 5 -96 2 -182 6 -191 8 -9 2 -21 1 -26 -3z m319 -214 c2 -54 1 -101 -1
-103 -2 -2 -51 -4 -108 -4 l-104 0 3 105 2 104 103 -2 102 -2 3 -98z"/>
<path d="M1663 1922 l-71 -3 -2 -157 c-1 -86 -2 -181 -2 -210 -1 -29 1 -54 3
-56 4 -4 409 -10 449 -7 13 1 15 31 15 210 0 115 -3 213 -7 217 -8 7 -255 11
-385 6z m253 -125 c10 -6 11 -177 1 -193 -3 -5 -52 -9 -109 -9 l-103 1 0 100
0 99 45 5 c58 6 154 5 166 -3z"/>
<path d="M670 1780 l-45 -5 -3 -195 -3 -196 203 2 c112 2 262 3 335 3 l132 1
1 201 1 200 -288 -3 c-159 -2 -308 -5 -333 -8z m511 -140 c0 -19 2 -59 4 -87
l3 -53 -56 -1 c-32 0 -134 -2 -228 -4 l-172 -4 -1 89 -1 89 142 3 c79 2 180 3
226 3 l82 0 1 -35z"/>
</g>
</svg>
