<?xml version="1.0" standalone="no"?>
<!DOCTYPE svg PUBLIC "-//W3C//DTD SVG 20010904//EN"
 "http://www.w3.org/TR/2001/REC-SVG-20010904/DTD/svg10.dtd">
<svg width="150" height="150" viewBox="0 0 150 150" fill="none" xmlns="http://www.w3.org/2000/svg">
<rect width="150" height="150" fill="white"/>
<path fill-rule="evenodd" clip-rule="evenodd" d="M111.719 99.2321H102.734V68.7634C102.474 64.4665 101.953 57.0446 92.5781 57.0446C83.2031 57.0446 80.5131 58.4059 76.9974 74.4215H73.0912C73.3072 73.4375 79.2969 49.6227 92.5781 49.2321C105.859 48.8415 111.719 57.0446 111.719 68.7634V99.2321ZM73.0912 74.4215C69.5756 90.4372 66.7969 92.2008 57.4219 92.2008C48.0469 92.2008 47.526 84.779 47.2656 80.4821V50.0133H38.2812V80.4821C38.2812 92.2008 44.1406 100.404 57.4219 100.013C70.7031 99.6227 76.699 75.7812 76.9974 74.4215H73.0912Z" fill="black"/>
</svg>
