<svg viewBox="0 0 44 44" version="1.1" xmlns="http://www.w3.org/2000/svg" xmlns:xlink="http://www.w3.org/1999/xlink">
    <g id="ui/feather/hotel" stroke="none" stroke-width="1" fill-rule="evenodd">
        <path d="M27,11 C28.6568767,11 30,12.3431372 30,14 L30,32 C30,32.5522847 29.5522847,33 29,33 L24,33 C23.4477153,33 23,32.5522847 23,32 L23,29 L21,29 L21,32 C21,32.5522847 20.5522847,33 20,33 L15,33 C14.4477153,33 14,32.5522847 14,32 L14,14 C14,12.3431453 15.3431453,11 17,11 L27,11 Z M27,13 L17,13 C16.4477147,13 16,13.4477147 16,14 L16,31 L19,31 L19,28 C19,27.4477153 19.4477153,27 20,27 L24,27 C24.5522847,27 25,27.4477153 25,28 L25,31 L28,31 L28,14 C28,13.4477021 27.5523026,13 27,13 Z M20,23 C20.5522847,23 21,23.4477153 21,24 C21,24.5522847 20.5522847,25 20,25 L20,25 L19,25 C18.4477153,25 18,24.5522847 18,24 C18,23.4477153 18.4477153,23 19,23 L19,23 Z M25,23 C25.5522847,23 26,23.4477153 26,24 C26,24.5522847 25.5522847,25 25,25 L25,25 L24,25 C23.4477153,25 23,24.5522847 23,24 C23,23.4477153 23.4477153,23 24,23 L24,23 Z M20,19 C20.5522847,19 21,19.4477153 21,20 C21,20.5522847 20.5522847,21 20,21 L20,21 L19,21 C18.4477153,21 18,20.5522847 18,20 C18,19.4477153 18.4477153,19 19,19 L19,19 Z M25,19 C25.5522847,19 26,19.4477153 26,20 C26,20.5522847 25.5522847,21 25,21 L25,21 L24,21 C23.4477153,21 23,20.5522847 23,20 C23,19.4477153 23.4477153,19 24,19 L24,19 Z M20,15 C20.5522847,15 21,15.4477153 21,16 C21,16.5522847 20.5522847,17 20,17 L20,17 L19,17 C18.4477153,17 18,16.5522847 18,16 C18,15.4477153 18.4477153,15 19,15 L19,15 Z M25,15 C25.5522847,15 26,15.4477153 26,16 C26,16.5522847 25.5522847,17 25,17 L25,17 L24,17 C23.4477153,17 23,16.5522847 23,16 C23,15.4477153 23.4477153,15 24,15 L24,15 Z" id="Combined-Shape"></path>
    </g>
</svg>
