<svg viewBox="0 0 44 44" version="1.1" xmlns="http://www.w3.org/2000/svg" xmlns:xlink="http://www.w3.org/1999/xlink">
    <g id="ui/feather/plus" stroke="none" stroke-width="1" fill-rule="evenodd">
        <path d="M22,14 C22.5522847,14 23,14.4477153 23,15 L23,15 L23,21 L29,21 C29.5128358,21 29.9355072,21.3860402 29.9932723,21.8833789 L30,22 C30,22.5522847 29.5522847,23 29,23 L29,23 L23,23 L23,29 C23,29.5128358 22.6139598,29.9355072 22.1166211,29.9932723 L22,30 C21.4477153,30 21,29.5522847 21,29 L21,29 L21,23 L15,23 C14.4871642,23 14.0644928,22.6139598 14.0067277,22.1166211 L14,22 C14,21.4477153 14.4477153,21 15,21 L15,21 L21,21 L21,15 C21,14.4871642 21.3860402,14.0644928 21.8833789,14.0067277 Z" id="Combined-Shape"></path>
    </g>
</svg>
