<svg viewBox="0 0 44 44" version="1.1" xmlns="http://www.w3.org/2000/svg" xmlns:xlink="http://www.w3.org/1999/xlink">
    <g id="ui/44/trash" stroke="none" stroke-width="1" fill-rule="evenodd">
        <path d="M24,11 C25.5976809,11 26.9036609,12.24892 26.9949073,13.8237272 L27,14 L27,15 L31,15 C31.5522847,15 32,15.4477153 32,16 C32,16.5128358 31.6139598,16.9355072 31.1166211,16.9932723 L31,17 L30,17 L30,30 C30,31.5976809 28.75108,32.9036609 27.1762728,32.9949073 L27,33 L17,33 C15.4023191,33 14.0963391,31.75108 14.0050927,30.1762728 L14,30 L14,17 L13,17 C12.4477153,17 12,16.5522847 12,16 C12,15.4871642 12.3860402,15.0644928 12.8833789,15.0067277 L13,15 L17,15 L17,14 C17,12.4023191 18.24892,11.0963391 19.8237272,11.0050927 L20,11 L24,11 Z M28,17 L16,17 L16,30 C16,30.5128358 16.3860402,30.9355072 16.8833789,30.9932723 L17,31 L27,31 C27.5128358,31 27.9355072,30.6139598 27.9932723,30.1166211 L28,30 L28,17 Z M20,20 C20.5128358,20 20.9355072,20.3860402 20.9932723,20.8833789 L21,21 L21,27 C21,27.5522847 20.5522847,28 20,28 C19.4871642,28 19.0644928,27.6139598 19.0067277,27.1166211 L19,27 L19,21 C19,20.4477153 19.4477153,20 20,20 Z M24,20 C24.5128358,20 24.9355072,20.3860402 24.9932723,20.8833789 L25,21 L25,27 C25,27.5522847 24.5522847,28 24,28 C23.4871642,28 23.0644928,27.6139598 23.0067277,27.1166211 L23,27 L23,21 C23,20.4477153 23.4477153,20 24,20 Z M24,13 L20,13 C19.4871642,13 19.0644928,13.3860402 19.0067277,13.8833789 L19,14 L19,15 L25,15 L25,14 C25,13.4871642 24.6139598,13.0644928 24.1166211,13.0067277 L24,13 Z" id="Combined-Shape"></path>
    </g>
</svg>
