<svg viewBox="0 0 44 44" version="1.1" xmlns="http://www.w3.org/2000/svg" xmlns:xlink="http://www.w3.org/1999/xlink">
    <g id="ui/feather/un-lock" stroke="none" stroke-width="1" fill-rule="evenodd">
        <path d="M21.3970052,12.0253519 C24.4639192,11.7155626 27.2665944,13.7801337 27.8800005,16.801005 C27.9899024,17.3422443 27.6402343,17.8700986 27.098995,17.9800005 C26.5577557,18.0899024 26.0299014,17.7402343 25.9199995,17.198995 C25.5110621,15.1850808 23.642612,13.8087001 21.5980027,14.0152262 C19.5533935,14.2217524 17.9979337,15.9439826 17.9999949,18 L17.9999949,18 L17.999,20.9996319 L29,21 C30.6568542,21 32,22.3431458 32,24 L32,31 C32,32.6568542 30.6568542,34 29,34 L15,34 C13.3431458,34 12,32.6568542 12,31 L12,24 C12,22.3431458 13.3431458,21 15,21 L15.999,20.9996319 L15.9999949,18.001004 C15.9969804,14.9955484 18.2148927,12.4646203 21.1683875,12.0528213 Z M29,23 L15,23 C14.4477153,23 14,23.4477153 14,24 L14,31 C14,31.5522847 14.4477153,32 15,32 L29,32 C29.5522847,32 30,31.5522847 30,31 L30,24 C30,23.4477153 29.5522847,23 29,23 Z" id="Combined-Shape"></path>
    </g>
</svg>
