<svg viewBox="0 0 44 44" version="1.1" xmlns="http://www.w3.org/2000/svg" xmlns:xlink="http://www.w3.org/1999/xlink">
    <g id="ui/feather/award" stroke="none" stroke-width="1" fill-rule="evenodd">
        <path d="M22,10 C26.418278,10 30,13.581722 30,18 C30,20.5896541 28.7695348,22.8919177 26.8613622,24.3540331 L27.9913131,32.8684771 C28.1014481,33.6985855 27.2035539,34.2883227 26.4855042,33.8574929 L26.4855042,33.8574929 L22,31.1661904 L17.5144958,33.8574929 C16.796389,34.288357 15.8984431,33.6984938 16.0087057,32.8683352 L16.0087057,32.8683352 L17.1396286,24.3547921 C15.2308911,22.8927146 14,20.5901023 14,18 C14,13.581722 17.581722,10 22,10 Z M22,26 C20.9448207,26 19.9373548,25.7957141 19.0149954,25.4245352 L18.2644437,31.0751434 L21.4855042,29.1425071 C21.8021866,28.9524976 22.1978134,28.9524976 22.5144958,29.1425071 L22.5144958,29.1425071 L25.7358817,31.0753387 L24.9860028,25.4241334 C24.063372,25.7955667 23.05556,26 22,26 Z M22,12 C18.6862915,12 16,14.6862915 16,18 C16,21.3137085 18.6862915,24 22,24 C23.1725883,24 24.2666135,23.6636312 25.1908485,23.0821208 C25.232672,23.0476978 25.2784253,23.0187294 25.3266434,22.9935211 C26.9383509,21.9184124 28,20.0831869 28,18 C28,14.6862915 25.3137085,12 22,12 Z" id="Combined-Shape"></path>
    </g>
</svg>
