<svg viewBox="0 0 44 44" version="1.1" xmlns="http://www.w3.org/2000/svg" xmlns:xlink="http://www.w3.org/1999/xlink">
    <g id="ui/feather/circle-ckeck" stroke="none" stroke-width="1" fill-rule="evenodd">
        <path d="M13.6381015,14.8473511 C16.8032533,11.1441276 22.0271837,9.96384958 26.4769998,11.9465718 C26.9814723,12.1713516 27.208208,12.7625274 26.9834282,13.2669998 C26.7586484,13.7714723 26.1674726,13.998208 25.6630002,13.7734282 C22.0222415,12.151201 17.7481166,13.116883 15.1584469,16.1467932 C12.5687773,19.1767033 12.2804651,23.5490667 14.4498597,26.8927879 C16.6192544,30.2365091 20.7295699,31.7550583 24.5518173,30.6249391 C28.3740647,29.4948199 30.9977212,25.9852455 31,22 L31,22 L31,21.08 C31,20.5277153 31.4477153,20.08 32,20.08 C32.5522847,20.08 33,20.5277153 33,21.08 L33,21.08 L33,22.0005718 C32.9972144,26.8721262 29.7905232,31.161606 25.1188875,32.5428628 C20.4472518,33.9241196 15.4235327,32.0681151 12.7720504,27.9813447 C10.1205681,23.8945744 10.4729496,18.5505746 13.6381015,14.8473511 Z M31.2925399,13.2932467 C31.682869,12.9025273 32.3160339,12.9022109 32.7067533,13.2925399 C33.0974727,13.682869 33.0977891,14.3160339 32.7074601,14.7067533 L32.7074601,14.7067533 L22.7074601,24.7167533 C22.3169931,25.1076108 21.6835555,25.1077691 21.2928932,24.7171068 L21.2928932,24.7171068 L18.2928932,21.7171068 C17.9023689,21.3265825 17.9023689,20.6934175 18.2928932,20.3028932 C18.6834175,19.9123689 19.3165825,19.9123689 19.7071068,20.3028932 L19.7071068,20.3028932 L21.9996465,22.595433 Z" id="Combined-Shape"></path>
    </g>
</svg>
