<svg viewBox="0 0 44 44" version="1.1" xmlns="http://www.w3.org/2000/svg" xmlns:xlink="http://www.w3.org/1999/xlink">
    <g id="ui/feather/coffe" stroke="none" stroke-width="1" fill-rule="evenodd">
        <path d="M29,17 C31.7614237,17 34,19.2385763 34,22 C34,24.7614237 31.7614237,27 29,27 L29,27 C29,29.7614237 26.7614237,32 24,32 L16,32 C13.2385763,32 11,29.7614237 11,27 L11,18 C11,17.4477153 11.4477153,17 12,17 Z M27,19 L13,19 L13,27 C13,28.6568542 14.3431458,30 16,30 L24,30 C25.6568542,30 27,28.6568542 27,27 L27,19 Z M29,19 L29,25 C30.6568542,25 32,23.6568542 32,22 C32,20.3431458 30.6568542,19 29,19 L29,19 Z M16,10 C16.5522847,10 17,10.4477153 17,11 L17,11 L17,14 C17,14.5522847 16.5522847,15 16,15 C15.4477153,15 15,14.5522847 15,14 L15,14 L15,11 C15,10.4477153 15.4477153,10 16,10 Z M20,10 C20.5522847,10 21,10.4477153 21,11 L21,11 L21,14 C21,14.5522847 20.5522847,15 20,15 C19.4477153,15 19,14.5522847 19,14 L19,14 L19,11 C19,10.4477153 19.4477153,10 20,10 Z M24,10 C24.5522847,10 25,10.4477153 25,11 L25,11 L25,14 C25,14.5522847 24.5522847,15 24,15 C23.4477153,15 23,14.5522847 23,14 L23,14 L23,11 C23,10.4477153 23.4477153,10 24,10 Z" id="Combined-Shape"></path>
    </g>
</svg>
