<?xml version="1.0" encoding="UTF-8"?>
<svg viewBox="0 0 44 44" version="1.1" xmlns="http://www.w3.org/2000/svg" xmlns:xlink="http://www.w3.org/1999/xlink">
    <g id="icon/edit/44" stroke="none" stroke-width="1" fill-rule="evenodd">
        <path d="M31,29 C31.5522847,29 32,29.4477153 32,30 C32,30.5522847 31.5522847,31 31,31 L31,31 L22,31 C21.4477153,31 21,30.5522847 21,30 C21,29.4477153 21.4477153,29 22,29 L22,29 Z M28.8078572,11.9850361 C29.885,12.2736556 30.7263444,13.115 31.0149639,14.1921428 C31.3035835,15.2692857 30.9956301,16.4185835 30.2071068,17.2071068 L17.7071068,29.7071068 C17.578948,29.8352656 17.4183681,29.9261844 17.2425356,29.9701425 L13.2425356,30.9701425 C12.5101552,31.1532376 11.8467624,30.4898448 12.0298575,29.7574644 L13.0298575,25.7574644 C13.0738156,25.5816319 13.1647344,25.421052 13.2928932,25.2928932 L25.7928932,12.7928932 L25.9448635,12.6507051 C26.7247969,11.9682061 27.7980357,11.7144552 28.8078572,11.9850361 Z M27.2071068,14.2071068 L14.902964,26.5112495 L14.3743685,28.6256315 L16.4887505,28.097036 L28.7928932,15.7928932 C29.0761667,15.5096198 29.1867976,15.0967397 29.0831123,14.7097809 C28.979427,14.3228222 28.6771778,14.020573 28.2902191,13.9168877 C27.9032603,13.8132024 27.4903802,13.9238333 27.2071068,14.2071068 Z" id="Combined-Shape"></path>
    </g>
</svg>
