<svg viewBox="0 0 44 44" version="1.1" xmlns="http://www.w3.org/2000/svg" xmlns:xlink="http://www.w3.org/1999/xlink">
    <g id="ui/feather/finger" stroke="none" stroke-width="1" fill-rule="evenodd">
        <path d="M23.3164218,13.3916441 L23.3784967,13.5679497 C23.5004895,13.9561956 23.6143295,14.5839641 23.8062071,15.9141248 L24.3210566,19.6178376 L24.4303434,20.3445983 L25.6158143,20.7074232 L26.5265574,20.9972364 C30.6125111,22.3252413 32.4201212,23.3293908 32.7973763,24.7882738 C33.5458354,27.6830475 32.1686941,33.7019625 29.5262231,34.6416453 C28.8342211,34.8878903 27.8977753,35 26.7684515,35 C24.1581796,35 20.6495698,34.3694253 19.4413602,33.6991023 C18.7703507,33.3266441 17.7220671,32.2803209 16.3305075,30.6881841 L15.9236076,30.2185464 C15.5059032,29.7325065 15.0798473,29.2243875 14.6555309,28.7085976 L14.232168,28.1907844 L13.3072775,27.0365874 C13.0006758,26.6470351 12.9162611,26.1106674 13.0868788,25.635991 C13.4650315,24.5823214 14.0838376,23.8677612 14.9271403,23.5912042 C15.9806851,23.2453891 16.8190071,23.4737845 18.3449074,24.4862897 L18.7591592,24.7683465 L18.7590141,22.9764923 C18.7705056,20.0962305 18.8320754,16.7603128 18.8912006,15.1077832 L18.9224194,14.3943724 C18.9892854,13.237551 19.6966041,12.3212423 20.7194167,12.0683045 L20.8608161,12.0379645 L21.0025195,12.0164052 C21.9927161,11.8970444 22.9383481,12.4364604 23.3164218,13.3916441 Z M21.1317177,13.7169718 L21.0359679,13.740392 C20.732518,13.83537 20.5387327,14.106689 20.5160498,14.4991152 L20.4977845,14.8798827 C20.415223,16.8732862 20.3182295,22.7186199 20.366723,25.9046188 L20.412195,28.045431 L18.8033957,26.855722 C16.8291242,25.4001156 16.0382586,25.0089863 15.3963904,25.2196728 C15.1002909,25.3167772 14.8462476,25.5867792 14.6410584,26.0816024 L15.1408769,26.7069372 L15.8549049,27.5839838 C16.1331117,27.92217 16.4119119,28.2568054 16.688204,28.5835071 L17.2789218,29.2739933 L17.7943033,29.8613441 C18.9038274,31.1086003 19.7649219,31.9582665 20.1780548,32.1875848 C21.1150101,32.7074141 24.3916068,33.2962909 26.7684515,33.2962909 C27.7410932,33.2962909 28.523026,33.2026792 29.0212641,33.025384 C30.6496051,32.4463336 31.8099134,27.375106 31.2582362,25.2414147 C31.0731843,24.5258004 29.0218488,23.5378528 24.8336983,22.2395907 L23.7835659,21.9193576 L23.0604224,21.6894057 L22.958791,21.2027823 C22.9109603,20.973763 22.8585203,20.6621925 22.7866099,20.1769505 L22.1880241,15.9049498 L22.0531457,15.0318964 C21.9821352,14.6006314 21.9275361,14.3272336 21.8815807,14.1644352 L21.8455285,14.0543909 C21.7479604,13.8078901 21.4633209,13.6558814 21.1317177,13.7169718 Z M30.753492,9.09966505 L30.8326324,9.16475244 L34.6163279,12.890311 C34.8393196,12.9757025 35,13.2164062 35,13.5 C35,13.513314 34.9996459,13.5265335 34.9989477,13.5396468 C34.9982094,13.5449176 34.997779,13.5499546 34.9972799,13.5549863 C34.9788469,13.814231 34.8248242,14.0298483 34.6163279,14.109689 L30.8326324,17.8352476 C30.6094757,18.0549175 30.2476671,18.0549175 30.0245104,17.8352476 C29.8261489,17.6399854 29.8041087,17.336883 29.9583899,17.1176563 L30.0245104,17.0397524 L32.968,14.142 L26.5625,14.1428571 C26.2829058,14.1428571 26.0509562,13.9097254 26.0073622,13.6042748 L26,13.5 C26,13.1804638 26.2039903,12.9153785 26.4712596,12.8655568 L26.5625,12.8571429 L32.967,12.857 L30.0245104,9.96024756 C29.8261489,9.76498542 29.8041087,9.46188297 29.9583899,9.24265631 L30.0245104,9.16475244 C30.222872,8.96949029 30.5307856,8.9477945 30.753492,9.09966505 Z M12.9754896,9.16475244 C13.1738511,9.36001458 13.1958913,9.66311703 13.0416101,9.88234369 L12.9754896,9.96024756 L10.032,12.858 L16.4375,12.8571429 C16.7170942,12.8571429 16.9490438,13.0902746 16.9926378,13.3957252 L17,13.5 C17,13.8195362 16.7960097,14.0846215 16.5287404,14.1344432 L16.4375,14.1428571 L10.033,14.143 L12.9754896,17.0397524 C13.1738511,17.2350146 13.1958913,17.538117 13.0416101,17.7573437 L12.9754896,17.8352476 C12.777128,18.0305097 12.4692144,18.0522055 12.246508,17.9003349 L12.1673676,17.8352476 L8.38367208,14.109689 C8.16068041,14.0242975 8,13.7835938 8,13.5 C8,13.486686 8.00035415,13.4734665 8.00105227,13.4603532 C8.00179061,13.4550824 8.00222104,13.4500454 8.00272014,13.4450137 C8.02115309,13.185769 8.1751758,12.9701517 8.38367208,12.890311 L12.1673676,9.16475244 C12.3905243,8.94508252 12.7523329,8.94508252 12.9754896,9.16475244 Z M34.9972799,13.4450137 L34.9980198,13.4530687 L34.998,13.461 L34.9972799,13.4450137 Z" id="Combined-Shape"></path>
    </g>
</svg>
