<svg viewBox="0 0 44 44" version="1.1" xmlns="http://www.w3.org/2000/svg" xmlns:xlink="http://www.w3.org/1999/xlink">
    <g id="ui/feather/info" stroke="none" stroke-width="1" fill-rule="evenodd">
        <path d="M22,11 C28.0751322,11 33,15.9248678 33,22 C33,28.0751322 28.0751322,33 22,33 C15.9248678,33 11,28.0751322 11,22 C11,15.9248678 15.9248678,11 22,11 Z M22,13 C17.0294373,13 13,17.0294373 13,22 C13,26.9705627 17.0294373,31 22,31 C26.9705627,31 31,26.9705627 31,22 C31,17.0294373 26.9705627,13 22,13 Z M22,21 C22.5522847,21 23,21.4477153 23,22 L23,22 L23,26 C23,26.5522847 22.5522847,27 22,27 C21.4477153,27 21,26.5522847 21,26 L21,26 L21,22 C21,21.4477153 21.4477153,21 22,21 Z M22,17 C22.5522847,17 23,17.4477153 23,18 L23,18 L23,18.1 C23,18.6522847 22.5522847,19.1 22,19.1 C21.4477153,19.1 21,18.6522847 21,18.1 L21,18.1 L21,18 C21,17.4477153 21.4477153,17 22,17 Z" id="Combined-Shape"></path>
    </g>
</svg>
