<svg viewBox="0 0 44 44" version="1.1" xmlns="http://www.w3.org/2000/svg" xmlns:xlink="http://www.w3.org/1999/xlink">
    <g id="ui/feather/marker" stroke="none" stroke-width="1" fill-rule="evenodd">
        <path d="M22,10.0000001 C27.5228475,10.0000001 32,14.4771526 32,20.0000001 C32,23.3716047 30.1975984,26.6760076 27.2259527,29.8127448 C26.2070021,30.8883037 25.118253,31.8681779 24.0291768,32.7354053 L23.6565722,33.0275578 C23.5960541,33.0742597 23.5363542,33.1199594 23.4775129,33.1646463 L22.9722093,33.539195 L22.5547002,33.8320504 C22.2561229,34.0311019 21.8771884,34.0532188 21.560754,33.8984009 L21.4452998,33.8320504 L21.0277907,33.539195 L20.5224871,33.1646463 C20.3459631,33.0305856 20.1617123,32.8874096 19.9708232,32.7354053 C18.881747,31.8681779 17.7929979,30.8883037 16.7740473,29.8127448 C13.8024016,26.6760076 12,23.3716047 12,20.0000001 C12,14.4771526 16.4771525,10.0000001 22,10.0000001 Z M22,12.0000001 C17.581722,12.0000001 14,15.5817221 14,20.0000001 C14,22.7533955 15.5725984,25.6364927 18.2259527,28.4372555 C19.1757521,29.4398215 20.196378,30.3583849 21.2166768,31.170845 C21.4951711,31.392609 21.7576885,31.5936104 22,31.7726169 L22.2488902,31.5863244 C22.4190983,31.4573025 22.5976604,31.3186876 22.7833232,31.170845 C23.803622,30.3583849 24.8242479,29.4398215 25.7740473,28.4372555 C28.4274016,25.6364927 30,22.7533955 30,20.0000001 C30,15.5817221 26.418278,12.0000001 22,12.0000001 Z M22,16 C24.209139,16 26,17.790861 26,20 C26,22.209139 24.209139,24 22,24 C19.790861,24 18,22.209139 18,20 C18,17.790861 19.790861,16 22,16 Z M22,18 C20.8954305,18 20,18.8954305 20,20 C20,21.1045695 20.8954305,22 22,22 C23.1045695,22 24,21.1045695 24,20 C24,18.8954305 23.1045695,18 22,18 Z" id="Combined-Shape"></path>
    </g>
</svg>
