<svg viewBox="0 0 44 44" version="1.1" xmlns="http://www.w3.org/2000/svg" xmlns:xlink="http://www.w3.org/1999/xlink">
    <g id="ui/feather/stop" stroke="none" stroke-width="1" fill-rule="evenodd">
        <path d="M26.14,11 C26.4052165,11 26.6595704,11.1053568 26.8471068,11.2928932 L32.7071068,17.1528932 C32.8946432,17.3404296 33,17.5947835 33,17.86 L33,26.14 C33,26.4052165 32.8946432,26.6595704 32.7071068,26.8471068 L26.8471068,32.7071068 C26.6595704,32.8946432 26.4052165,33 26.14,33 L17.86,33 C17.5947835,33 17.3404296,32.8946432 17.1528932,32.7071068 L11.2928932,26.8471068 C11.1053568,26.6595704 11,26.4052165 11,26.14 L11,17.86 C11,17.5947835 11.1053568,17.3404296 11.2928932,17.1528932 L17.1528932,11.2928932 C17.3404296,11.1053568 17.5947835,11 17.86,11 L26.14,11 Z M25.7257864,13 L18.2742136,13 L13,18.2742136 L13,25.7257864 L18.2742136,31 L25.7257864,31 L31,25.7257864 L31,18.2742136 L25.7257864,13 Z M18.2928932,18.2928932 C18.6834175,17.9023689 19.3165825,17.9023689 19.7071068,18.2928932 L19.7071068,18.2928932 L22,20.585 L24.2928932,18.2928932 C24.6533772,17.9324093 25.2206082,17.9046797 25.6128994,18.2097046 L25.7071068,18.2928932 C26.0976311,18.6834175 26.0976311,19.3165825 25.7071068,19.7071068 L25.7071068,19.7071068 L23.415,22 L25.7071068,24.2928932 C26.0675907,24.6533772 26.0953203,25.2206082 25.7902954,25.6128994 L25.7071068,25.7071068 C25.3165825,26.0976311 24.6834175,26.0976311 24.2928932,25.7071068 L24.2928932,25.7071068 L22,23.415 L19.7071068,25.7071068 C19.3466228,26.0675907 18.7793918,26.0953203 18.3871006,25.7902954 L18.2928932,25.7071068 C17.9023689,25.3165825 17.9023689,24.6834175 18.2928932,24.2928932 L18.2928932,24.2928932 L20.585,22 L18.2928932,19.7071068 C17.9324093,19.3466228 17.9046797,18.7793918 18.2097046,18.3871006 Z" id="Combined-Shape"></path>
    </g>
</svg>
