<svg viewBox="0 0 44 44" version="1.1" xmlns="http://www.w3.org/2000/svg" xmlns:xlink="http://www.w3.org/1999/xlink">
    <g id="ui/feather/thumbs-up" stroke="none" stroke-width="1" fill-rule="evenodd">
        <path d="M14,33 C12.3431458,33 11,31.6568542 11,30 L11,30 L11,23 C11,21.3431458 12.3431458,20 14,20 L14,20 L16.35,20 L20.0861885,11.5938615 C20.2466898,11.2327335 20.6048113,11 21,11 C23.209139,11 25,12.790861 25,15 L25,18.0000114 L29.6486763,18.0000641 C30.5288038,17.9900971 31.368906,18.3671439 31.946464,19.0313356 C32.524022,19.6955273 32.7807603,20.5798471 32.6484478,21.451562 L31.2686957,30.4499361 C31.0443957,31.9289955 29.7647132,33.0167838 28.28,33.0003183 Z M15.999,31 L15.999,22 L14,22 C13.4871642,22 13.0644928,22.3860402 13.0067277,22.8833789 L13,23 L13,30 C13,30.5522847 13.4477153,31 14,31 L14,31 L15.999,31 Z M21.6080478,13.0941069 L18,21.2122145 L18,31.0001352 L28.2911743,31.0003174 C28.7899053,31.0057654 29.2165333,30.6431122 29.2915522,30.148438 L30.6713237,21.1499359 C30.7153517,20.8598635 30.6297723,20.5650903 30.437253,20.3436931 C30.2447337,20.1222958 29.9646996,19.9966136 29.66,20 L24,20 C23.4477153,20 23,19.5522847 23,19 L23,15 C23,14.107435 22.4153102,13.3514316 21.6080478,13.0941069 Z" id="Combined-Shape"></path>
    </g>
</svg>
