<svg viewBox="0 0 44 44" version="1.1" xmlns="http://www.w3.org/2000/svg" xmlns:xlink="http://www.w3.org/1999/xlink">
    <g id="ui/feather/user-check" stroke="none" stroke-width="1" fill-rule="evenodd">
        <path d="M22,24 C24.7614237,24 27,26.2385763 27,29 L27,29 L27,31 C27,31.5522847 26.5522847,32 26,32 C25.4477153,32 25,31.5522847 25,31 L25,31 L25,29 C25,27.3431458 23.6568542,26 22,26 L22,26 L15,26 C13.3431458,26 12,27.3431458 12,29 L12,29 L12,31 C12,31.5522847 11.5522847,32 11,32 C10.4477153,32 10,31.5522847 10,31 L10,31 L10,29 C10,26.2385763 12.2385763,24 15,24 L15,24 Z M32.2928932,18.2928932 C32.6834175,17.9023689 33.3165825,17.9023689 33.7071068,18.2928932 C34.0976311,18.6834175 34.0976311,19.3165825 33.7071068,19.7071068 L33.7071068,19.7071068 L29.7071068,23.7071068 C29.3165825,24.0976311 28.6834175,24.0976311 28.2928932,23.7071068 L28.2928932,23.7071068 L26.2928932,21.7071068 C25.9023689,21.3165825 25.9023689,20.6834175 26.2928932,20.2928932 C26.6834175,19.9023689 27.3165825,19.9023689 27.7071068,20.2928932 L27.7071068,20.2928932 L29,21.5857864 Z M18.5,12 C21.2614237,12 23.5,14.2385763 23.5,17 C23.5,19.7614237 21.2614237,22 18.5,22 C15.7385763,22 13.5,19.7614237 13.5,17 C13.5,14.2385763 15.7385763,12 18.5,12 Z M18.5,14 C16.8431458,14 15.5,15.3431458 15.5,17 C15.5,18.6568542 16.8431458,20 18.5,20 C20.1568542,20 21.5,18.6568542 21.5,17 C21.5,15.3431458 20.1568542,14 18.5,14 Z" id="Combined-Shape"></path>
    </g>
</svg>
