<svg viewBox="0 0 44 44" version="1.1" xmlns="http://www.w3.org/2000/svg" xmlns:xlink="http://www.w3.org/1999/xlink">
    <g id="ui/feather/add-to-shopping" stroke="none" stroke-width="1" fill-rule="evenodd">
        <path d="M19,29 C20.1045695,29 21,29.8954305 21,31 C21,32.1045695 20.1045695,33 19,33 C17.8954305,33 17,32.1045695 17,31 C17,29.8954305 17.8954305,29 19,29 Z M30,29 C31.1045695,29 32,29.8954305 32,31 C32,32.1045695 31.1045695,33 30,33 C28.8954305,33 28,32.1045695 28,31 C28,29.8954305 28.8954305,29 30,29 Z M15,10 C15.4369081,10 15.8181538,10.282657 15.9507113,10.6897511 L15.9805525,10.803743 L16.82,15 L18,15 C18.5128358,15 18.9355072,15.3860402 18.9932723,15.8833789 L19,16 C19,16.5128358 18.6139598,16.9355072 18.1166211,16.9932723 L18,17 L17.22,17 L18.6608397,24.1951836 C18.7473442,24.6307064 19.1085816,24.9519931 19.5559859,24.9952261 L19.68,25 L29.4191603,25.0001836 C29.8631093,25.0086913 30.2541338,24.7244071 30.3877865,24.3167758 L30.4177024,24.2026727 L31.7952752,16.9790254 C31.3411832,16.8845542 31,16.4821209 31,16 C31,15.4871642 31.3860402,15.0644928 31.8833789,15.0067277 L32,15 L33,15 C33.5881844,15 34.0401671,15.5018881 33.9975268,16.0724316 L33.9822976,16.1873273 L32.3808397,24.5848164 C32.1095303,25.9507743 30.9373918,26.9421605 29.5782775,26.9980601 L29.4,27 L19.6991603,26.9998164 C18.3067747,27.0264998 17.0879246,26.0931403 16.7398526,24.7620824 L16.6994475,24.586257 L14.1803162,12 L11,12 C10.4477153,12 10,11.5522847 10,11 C10,10.4871642 10.3860402,10.0644928 10.8833789,10.0067277 L11,10 L15,10 Z M25,10 C25.5522847,10 26,10.4477153 26,11 L26,11 L26,16.585 L27.2928932,15.2928932 C27.6533772,14.9324093 28.2206082,14.9046797 28.6128994,15.2097046 L28.7071068,15.2928932 C29.0976311,15.6834175 29.0976311,16.3165825 28.7071068,16.7071068 L28.7071068,16.7071068 L25.7071068,19.7071068 C25.6786405,19.7355731 25.6484659,19.7623312 25.6167501,19.787214 C25.6098424,19.7927155 25.602603,19.7982466 25.5953066,19.8036654 C25.5711307,19.8215099 25.546275,19.8382813 25.5206602,19.8539326 C25.5086131,19.8613931 25.4963944,19.8685012 25.4840621,19.8753288 C25.4642939,19.8862061 25.4438914,19.8966234 25.4230991,19.9063462 C25.4060985,19.914321 25.3887956,19.9218036 25.371336,19.9287745 C25.3515792,19.9366843 25.3317977,19.9438775 25.3117364,19.9504533 C25.2968513,19.9552713 25.2814633,19.9599023 25.265993,19.9641549 C25.2444365,19.9701664 25.2227461,19.9753602 25.2007941,19.9798348 C25.1833753,19.9832978 25.165949,19.9863719 25.1484669,19.9889822 C25.1003621,19.9962388 25.0506203,20 25,20 L25.0852242,19.996384 C25.0679231,19.997855 25.050591,19.9988772 25.0332468,19.9994506 L25,20 C24.9888734,20 24.9777892,19.9998183 24.9667503,19.9994576 C24.9497336,19.9989053 24.9317345,19.9978436 24.9137692,19.9962979 C24.892114,19.9944666 24.8714753,19.9920328 24.8510388,19.9889807 C24.834051,19.9863719 24.8166247,19.9832978 24.7992742,19.9797599 C24.7772539,19.9753602 24.7555635,19.9701664 24.7341604,19.964279 C24.7185367,19.9599023 24.7031487,19.9552713 24.6878575,19.9502619 C24.6682023,19.9438775 24.6484208,19.9366843 24.6289415,19.928896 C24.6112044,19.9218036 24.5939015,19.914321 24.5767785,19.9063266 C24.5561086,19.8966234 24.5357061,19.8862061 24.515723,19.8751242 C24.5036056,19.8685012 24.4913869,19.8613931 24.4792912,19.8540045 C24.453725,19.8382813 24.4288693,19.8215099 24.4048407,19.8036865 C24.3656744,19.774687 24.3282873,19.7425008 24.2928932,19.7071068 L24.3832499,19.787214 C24.3515341,19.7623312 24.3213595,19.7355731 24.2928932,19.7071068 L21.2928932,16.7071068 C20.9023689,16.3165825 20.9023689,15.6834175 21.2928932,15.2928932 C21.6834175,14.9023689 22.3165825,14.9023689 22.7071068,15.2928932 L22.7071068,15.2928932 L24,16.585 L24,11 C24,10.4871642 24.3860402,10.0644928 24.8833789,10.0067277 Z" id="Combined-Shape"></path>
    </g>
</svg>
