<svg viewBox="0 0 44 44" version="1.1" xmlns="http://www.w3.org/2000/svg" xmlns:xlink="http://www.w3.org/1999/xlink">
    <g id="ui/feather/alert-triangle" stroke="none" stroke-width="1" fill-rule="evenodd">
        <path d="M21.4470257,12 C22.495655,12 23.4681772,12.547538 24.0148931,13.4488729 L32.4930162,27.6026836 C33.0260538,28.5257831 33.0292363,29.662404 32.5013765,30.5884739 C31.9735166,31.5145439 30.9938982,32.0909683 29.9170257,32.102744 L12.9660352,32.102744 C11.9001532,32.0909683 10.9205348,31.5145439 10.392675,30.5884739 C9.86481508,29.662404 9.86799762,28.5257831 10.4091583,27.5888729 L18.8820257,13.444116 C19.4258742,12.547538 20.3983964,12 21.4470257,12 Z M21.4470257,14 C21.0974826,14 20.7733085,14.1825127 20.5948931,14.4766151 L12.1330162,28.6028044 C11.9553371,28.9105042 11.9542762,29.2893779 12.1302295,29.5980678 C12.3061828,29.9067578 12.6327222,30.0988993 12.9770257,30.1028044 L29.9060352,30.1028044 C30.2613292,30.0988993 30.5878686,29.9067578 30.7638219,29.5980678 C30.9397752,29.2893779 30.9387144,28.9105042 30.7691583,28.6166151 L22.3020257,14.481372 C22.1207429,14.1825127 21.7965688,14 21.4470257,14 Z M21.4470257,26.102744 C21.9993105,26.102744 22.4470257,26.5504593 22.4470257,27.102744 L22.4470257,27.102744 L22.4470257,27.202744 C22.4470257,27.7550288 21.9993105,28.202744 21.4470257,28.202744 C20.894741,28.202744 20.4470257,27.7550288 20.4470257,27.202744 L20.4470257,27.202744 L20.4470257,27.102744 C20.4470257,26.5504593 20.894741,26.102744 21.4470257,26.102744 Z M21.4470257,18.102744 C21.9993105,18.102744 22.4470257,18.5504593 22.4470257,19.102744 L22.4470257,19.102744 L22.4470257,23.102744 C22.4470257,23.6550288 21.9993105,24.102744 21.4470257,24.102744 C20.894741,24.102744 20.4470257,23.6550288 20.4470257,23.102744 L20.4470257,23.102744 L20.4470257,19.102744 C20.4470257,18.5504593 20.894741,18.102744 21.4470257,18.102744 Z" id="Combined-Shape"></path>
    </g>
</svg>
