<svg viewBox="0 0 44 44" version="1.1" xmlns="http://www.w3.org/2000/svg" xmlns:xlink="http://www.w3.org/1999/xlink">
    <g id="ui/feather/arrow" stroke="none" stroke-width="1" fill-rule="evenodd">
        <path d="M21.2928932,14.2928932 C21.6834175,13.9023689 22.3165825,13.9023689 22.7071068,14.2928932 L22.7071068,14.2928932 L29.7071068,21.2928932 C29.7355731,21.3213595 29.7623312,21.3515341 29.787214,21.3832499 C29.7927155,21.3901576 29.7982466,21.397397 29.8036654,21.4046934 C29.8215099,21.4288693 29.8382813,21.453725 29.8539326,21.4793398 C29.8613931,21.4913869 29.8685012,21.5036056 29.8753288,21.5159379 C29.8862061,21.5357061 29.8966234,21.5561086 29.9063462,21.5769009 C29.914321,21.5939015 29.9218036,21.6112044 29.9287745,21.628664 C29.9366843,21.6484208 29.9438775,21.6682023 29.9504533,21.6882636 C29.9552713,21.7031487 29.9599023,21.7185367 29.9641549,21.734007 C29.9701664,21.7555635 29.9753602,21.7772539 29.9798348,21.7992059 C29.9832978,21.8166247 29.9863719,21.834051 29.9889822,21.8515331 C29.9962388,21.8996379 30,21.9493797 30,22 L29.9962979,21.9137692 C29.9978436,21.9317345 29.9989053,21.9497336 29.9994829,21.9677454 L30,22 C30,22.0112225 29.9998151,22.0224019 29.9994483,22.0335352 C29.9988772,22.050591 29.997855,22.0679231 29.996384,22.0852242 C29.994564,22.1070574 29.9920941,22.1281144 29.9889807,22.1489612 C29.9863719,22.165949 29.9832978,22.1833753 29.9797599,22.2007258 C29.9753602,22.2227461 29.9701664,22.2444365 29.964279,22.2658396 C29.9599023,22.2814633 29.9552713,22.2968513 29.9502619,22.3121425 C29.9438775,22.3317977 29.9366843,22.3515792 29.928896,22.3710585 C29.9218036,22.3887956 29.914321,22.4060985 29.9063266,22.4232215 C29.8966234,22.4438914 29.8862061,22.4642939 29.8751242,22.484277 C29.8685012,22.4963944 29.8613931,22.5086131 29.8540045,22.5207088 C29.8382813,22.546275 29.8215099,22.5711307 29.8036865,22.5951593 C29.774687,22.6343256 29.7425008,22.6717127 29.7071068,22.7071068 L29.787214,22.6167501 C29.7849289,22.6196628 29.7826279,22.6225624 29.7803112,22.625449 L29.7071068,22.7071068 L22.7071068,29.7071068 C22.3165825,30.0976311 21.6834175,30.0976311 21.2928932,29.7071068 C20.9023689,29.3165825 20.9023689,28.6834175 21.2928932,28.2928932 L21.2928932,28.2928932 L26.585,23 L15,23 C14.4871642,23 14.0644928,22.6139598 14.0067277,22.1166211 L14,22 C14,21.4477153 14.4477153,21 15,21 L15,21 L26.585,21 L21.2928932,15.7071068 C20.9324093,15.3466228 20.9046797,14.7793918 21.2097046,14.3871006 Z" id="Combined-Shape"></path>
    </g>
</svg>
