<svg viewBox="0 0 44 44" version="1.1" xmlns="http://www.w3.org/2000/svg" xmlns:xlink="http://www.w3.org/1999/xlink">
    <g id="ui/feather/bed" stroke="none" stroke-width="1" fill-rule="evenodd">
        <path d="M13,28 L13,29 C13,29.5522847 12.5522847,30 12,30 C11.4871642,30 11.0644928,29.6139598 11.0067277,29.1166211 L11,29 L11,15 C11,14.4477153 11.4477153,14 12,14 C12.5128358,14 12.9355072,14.3860402 12.9932723,14.8833789 L13,15 L13,18 L30,18 C31.5977025,18 32.9036624,19.248912 32.9949074,20.8237264 L33,21 L33,29 C33,29.5522847 32.5522847,30 32,30 C31.4871642,30 31.0644928,29.6139598 31.0067277,29.1166211 L31,29 L31,28 L13,28 L13,29 L13,28 Z M15,20 L13,20 L13,26 L15,26 L15,20 Z M30,20 L17,20 L17,26 L31,26 L31,21 C31,20.4871519 30.6139752,20.0644911 30.1166244,20.0067275 L30,20 Z" id="Shape"></path>
    </g>
</svg>
