<svg viewBox="0 0 44 44" version="1.1" xmlns="http://www.w3.org/2000/svg" xmlns:xlink="http://www.w3.org/1999/xlink">
    <g id="ui/feather/bell" stroke="none" stroke-width="1" fill-rule="evenodd">
        <path d="M22.9293367,30.4007267 C23.2288541,29.9995136 23.7881689,29.8776734 24.2317719,30.135 C24.7094982,30.4121209 24.8721209,31.0240456 24.595,31.5017719 C24.0583034,32.4269784 23.0696029,32.9964563 22,32.9964563 C20.9303971,32.9964563 19.9416966,32.4269784 19.405,31.5017719 C19.1278791,31.0240456 19.2905018,30.4121209 19.7682281,30.135 C20.2459544,29.8578791 20.8578791,30.0205018 21.135,30.4982281 L21.135,30.4982281 L21.2000436,30.5965394 C21.3874689,30.8464703 21.6830806,30.9964563 22,30.9964563 C22.3565343,30.9964563 22.6861011,30.8066303 22.865,30.4982281 Z M22,11 C25.8659932,11 29,14.1340068 29,18 C29,20.8997539 29.5229652,23.0787755 30.3778956,24.6461479 C30.6641519,25.1709511 30.9644664,25.5813809 31.2572027,25.8903804 C31.4153182,26.0572801 31.521808,26.1460216 31.5547002,26.1679497 L31.5547002,26.1679497 L31.6477113,26.2372047 C32.3458936,26.8173794 31.9498316,28 31,28 L31,28 L13,28 C12.010592,28 11.6220626,26.7167745 12.4452998,26.1679497 L12.4452998,26.1679497 L12.4677773,26.1513653 C12.5151226,26.11427 12.6110343,26.0294635 12.7427973,25.8903804 C13.0355336,25.5813809 13.3358481,25.1709511 13.6221044,24.6461479 C14.4770348,23.0787755 15,20.8997539 15,18 L15,18 L15.004059,17.7593502 C15.1309013,14.0047834 18.2145483,11 22,11 Z M22,13 C19.2385763,13 17,15.2385763 17,18 L17,18 L16.9959244,18.4558819 C16.9417154,21.4627013 16.3493904,23.8227782 15.3778956,25.6038521 C15.3023871,25.7422844 15.2264392,25.8742846 15.1503783,26 L15.1503783,26 L28.8496217,26 C28.7735608,25.8742846 28.6976129,25.7422844 28.6221044,25.6038521 C27.6020348,23.7337245 27,21.2252461 27,18 C27,15.2385763 24.7614237,13 22,13 Z" id="Combined-Shape"></path>
    </g>
</svg>
