<svg viewBox="0 0 44 44" version="1.1" xmlns="http://www.w3.org/2000/svg" xmlns:xlink="http://www.w3.org/1999/xlink">
    <g id="ui/feather/box" stroke="none" stroke-width="1" fill-rule="evenodd">
        <path d="M23.4961389,11.4017569 L30.5,15.4039743 C30.8744952,15.620189 31.1909859,15.9103942 31.4353116,16.2501595 C31.4958723,16.3109183 31.5502485,16.3808642 31.5956073,16.4592764 C31.6345646,16.5266224 31.6647918,16.596621 31.6866391,16.6679615 C31.8890973,17.0750571 31.9995177,17.5295542 32,18 L32,26.0010257 C31.9989013,27.0717233 31.4272516,28.0606772 30.4961389,28.5982431 L23.5,32.5960254 C23.1776822,32.7821157 22.8293922,32.9035863 22.4733293,32.96053 C22.3331483,33.0367658 22.1716231,33.08 22,33.08 C21.8287836,33.08 21.6676173,33.0369705 21.5267251,32.9611355 C21.1717381,32.9043519 20.8246003,32.783426 20.5038611,32.5982431 L13.5,28.5960257 C12.5727484,28.0606772 12.0010987,27.0717233 12,26 L12,17.9989743 C12.0004831,17.5281961 12.1112708,17.0732214 12.3140911,16.6656606 C12.3360614,16.5946498 12.3659841,16.5256739 12.4043927,16.4592764 C12.4497515,16.3808642 12.5041277,16.3109183 12.5654525,16.2499911 C12.8090141,15.9103942 13.1255048,15.620189 13.5,15.4039743 L20.5,11.4039746 C21.4282032,10.8680762 22.5717968,10.8680762 23.4961389,11.4017569 Z M13.999,18.5367732 L13.9999995,25.9989743 C14.0003655,26.3558735 14.1909154,26.6855248 14.4961389,26.8617569 L21,30.5787732 L21,22.5857732 L13.999,18.5367732 Z M29.999,18.5367732 L23,22.5857732 L23,30.5767732 L29.4999995,26.8639743 C29.8090846,26.6855248 29.9996345,26.3558735 29.9999995,26 L29.999,18.5367732 Z M21.4961389,13.1382431 L15.039,16.8277732 L22,20.8547417 L28.96,16.8277732 L22.4999995,13.1360254 C22.1905989,12.9573926 21.8094011,12.9573926 21.4961389,13.1382431 Z" id="Combined-Shape"></path>
    </g>
</svg>
