<svg viewBox="0 0 44 44" version="1.1" xmlns="http://www.w3.org/2000/svg" xmlns:xlink="http://www.w3.org/1999/xlink">
    <g id="ui/feather/calendar" stroke="none" stroke-width="1" fill-rule="evenodd">
        <path d="M26,11 C26.5128358,11 26.9355072,11.3860402 26.9932723,11.8833789 L27,12 L27,13 L29,13 C30.6568542,13 32,14.3431458 32,16 L32,30 C32,31.6568542 30.6568542,33 29,33 L15,33 C13.3431458,33 12,31.6568542 12,30 L12,16 C12,14.3431458 13.3431458,13 15,13 L17,13 L17,12 C17,11.4871642 17.3860402,11.0644928 17.8833789,11.0067277 L18,11 C18.5128358,11 18.9355072,11.3860402 18.9932723,11.8833789 L19,12 L19,13 L25,13 L25,12 C25,11.5266131 25.3289337,11.1300527 25.7707092,11.0264107 L25.8833789,11.0067277 L26,11 Z M30,21 L14,21 L14,30 C14,30.5522847 14.4477153,31 15,31 L29,31 C29.5522847,31 30,30.5522847 30,30 L30,21 Z M17,15 L15,15 C14.4477153,15 14,15.4477153 14,16 L14,19 L30,19 L30,16 C30,15.4477153 29.5522847,15 29,15 L27,15 L27,16 C27,16.5128358 26.6139598,16.9355072 26.1166211,16.9932723 L26,17 C25.4871642,17 25.0644928,16.6139598 25.0067277,16.1166211 L25,16 L25,15 L19,15 L19,16 C19,16.5128358 18.6139598,16.9355072 18.1166211,16.9932723 L18,17 C17.4871642,17 17.0644928,16.6139598 17.0067277,16.1166211 L17,16 L17,15 Z" id="calendar"></path>
    </g>
</svg>
