<svg viewBox="0 0 44 44" version="1.1" xmlns="http://www.w3.org/2000/svg" xmlns:xlink="http://www.w3.org/1999/xlink">
    <g id="ui/feather/camera" stroke="none" stroke-width="1" fill-rule="evenodd">
        <path d="M25,12 C25.3343532,12 25.6465845,12.1671011 25.8320503,12.4452998 L27.5351838,15 L31,15 C32.6568542,15 34,16.3431458 34,18 L34,29 C34,30.6568542 32.6568542,32 31,32 L13,32 C11.3431458,32 10,30.6568542 10,29 L10,18 C10,16.3431458 11.3431458,15 13,15 L16.4648162,15 L18.1679497,12.4452998 C18.3534155,12.1671011 18.6656468,12 19,12 L25,12 Z M24.4648162,14 L19.5351838,14 L17.8320503,16.5547002 C17.6465845,16.8328989 17.3343532,17 17,17 L13,17 C12.4477153,17 12,17.4477153 12,18 L12,29 C12,29.5522847 12.4477153,30 13,30 L31,30 C31.5522847,30 32,29.5522847 32,29 L32,18 C32,17.4477153 31.5522847,17 31,17 L27,17 C26.6656468,17 26.3534155,16.8328989 26.1679497,16.5547002 L24.4648162,14 Z M22,18 C24.7614237,18 27,20.2385763 27,23 C27,25.7614237 24.7614237,28 22,28 C19.2385763,28 17,25.7614237 17,23 C17,20.2385763 19.2385763,18 22,18 Z M22,20 C20.3431458,20 19,21.3431458 19,23 C19,24.6568542 20.3431458,26 22,26 C23.6568542,26 25,24.6568542 25,23 C25,21.3431458 23.6568542,20 22,20 Z" id="Combined-Shape"></path>
    </g>
</svg>
