<svg viewBox="0 0 44 44" version="1.1" xmlns="http://www.w3.org/2000/svg" xmlns:xlink="http://www.w3.org/1999/xlink">
    <g id="ui/feather/close" stroke="none" stroke-width="1" fill-rule="evenodd">
        <path d="M15.2097046,15.3871006 L15.2928932,15.2928932 C15.6533772,14.9324093 16.2206082,14.9046797 16.6128994,15.2097046 L16.7071068,15.2928932 L22,20.585 L27.2928932,15.2928932 C27.6533772,14.9324093 28.2206082,14.9046797 28.6128994,15.2097046 L28.7071068,15.2928932 C29.0675907,15.6533772 29.0953203,16.2206082 28.7902954,16.6128994 L28.7071068,16.7071068 L23.415,22 L28.7071068,27.2928932 C29.0675907,27.6533772 29.0953203,28.2206082 28.7902954,28.6128994 L28.7071068,28.7071068 C28.3466228,29.0675907 27.7793918,29.0953203 27.3871006,28.7902954 L27.2928932,28.7071068 L22,23.415 L16.7071068,28.7071068 C16.3466228,29.0675907 15.7793918,29.0953203 15.3871006,28.7902954 L15.2928932,28.7071068 C14.9324093,28.3466228 14.9046797,27.7793918 15.2097046,27.3871006 L15.2928932,27.2928932 L20.585,22 L15.2928932,16.7071068 C14.9324093,16.3466228 14.9046797,15.7793918 15.2097046,15.3871006 L15.2928932,15.2928932 L15.2097046,15.3871006 Z" id="close"></path>
    </g>
</svg>
