<svg viewBox="0 0 44 44" version="1.1" xmlns="http://www.w3.org/2000/svg" xmlns:xlink="http://www.w3.org/1999/xlink">
    <g id="ui/feather/eur" stroke="none" stroke-width="1" fill-rule="evenodd">
        <path d="M24.88235,14.5 C26.3097146,14.5 27.5736971,14.8539709 28.6026911,15.6311454 C29.0434003,15.9640025 29.1308317,16.5911019 28.7979746,17.0318111 C28.4651175,17.4725203 27.8380181,17.5599517 27.3973089,17.2270946 C26.747425,16.7362528 25.903798,16.5 24.88235,16.5 C22.9709874,16.5 21.118843,17.7640974 20.165289,19.5004635 L26,19.5 C26.5522847,19.5 27,19.9477153 27,20.5 C27,21.0522847 26.5522847,21.5 26,21.5 L26,21.5 L19.5262347,21.5004582 C19.5089097,21.6657915 19.5,21.8324609 19.5,22 C19.5,22.1678782 19.5089458,22.3348832 19.52634,22.5005458 L25,22.5 C25.5522847,22.5 26,22.9477153 26,23.5 C26,24.0522847 25.5522847,24.5 25,24.5 L25,24.5 L20.1658382,24.5005362 C21.119554,26.2363878 22.9713542,27.5 24.88235,27.5 C25.8711951,27.5 26.7302566,27.2481272 27.3993737,26.7454701 C27.8409418,26.4137534 28.4678131,26.5028055 28.7995299,26.9443737 C29.1312466,27.3859418 29.0421945,28.0128131 28.6006263,28.3445299 C27.5622817,29.1245597 26.2817691,29.5 24.88235,29.5 C21.8646839,29.5 19.0486536,27.3465671 17.967024,24.5004147 L16,24.5 C15.4477153,24.5 15,24.0522847 15,23.5 C15,22.9477153 15.4477153,22.5 16,22.5 L16,22.5 L17.5185293,22.5007189 C17.5062561,22.3347957 17.5,22.1678135 17.5,22 C17.5,21.8325242 17.5062309,21.6658763 17.5184553,21.5002827 L16,21.5 C15.4477153,21.5 15,21.0522847 15,20.5 C15,19.9477153 15.4477153,19.5 16,19.5 L16,19.5 L17.9666471,19.5005771 C19.0479994,16.6539332 21.8643334,14.5 24.88235,14.5 Z" id="Combined-Shape"></path>
    </g>
</svg>
