<?xml version="1.0" encoding="UTF-8"?>
<svg viewBox="0 0 44 44" version="1.1" xmlns="http://www.w3.org/2000/svg" xmlns:xlink="http://www.w3.org/1999/xlink">
    <g id="ui/44/frown" stroke="none" stroke-width="1">
        <path d="M22,11 C28.0751322,11 33,15.9248678 33,22 C33,28.0751322 28.0751322,33 22,33 C15.9248678,33 11,28.0751322 11,22 C11,15.9248678 15.9248678,11 22,11 Z M22,13 C17.0294373,13 13,17.0294373 13,22 C13,26.9705627 17.0294373,31 22,31 C26.9705627,31 31,26.9705627 31,22 C31,17.0294373 26.9705627,13 22,13 Z M22,23 C23.3247669,23 24.5068925,23.4503336 25.5256717,24.1912639 C26.1309689,24.63148 26.5571182,25.0761576 26.8,25.4 C27.1313708,25.8418278 27.0418278,26.4686292 26.6,26.8 C26.1581722,27.1313708 25.5313708,27.0418278 25.2,26.6 C25.0678818,26.4238424 24.7752811,26.11852 24.3493283,25.8087361 C23.6493575,25.2996664 22.8627331,25 22,25 C21.1372669,25 20.3506425,25.2996664 19.6506717,25.8087361 C19.2247189,26.11852 18.9321182,26.4238424 18.8,26.6 C18.4686292,27.0418278 17.8418278,27.1313708 17.4,26.8 C16.9581722,26.4686292 16.8686292,25.8418278 17.2,25.4 C17.4428818,25.0761576 17.8690311,24.63148 18.4743283,24.1912639 C19.4931075,23.4503336 20.6752331,23 22,23 Z M19.01,18 C19.5622847,18 20.01,18.4477153 20.01,19 C20.01,19.5128358 19.6239598,19.9355072 19.1266211,19.9932723 L19.01,20 C18.4477153,20 18,19.5522847 18,19 C18,18.4871642 18.3860402,18.0644928 18.8833789,18.0067277 L19.01,18 Z M25.01,18 C25.5622847,18 26.01,18.4477153 26.01,19 C26.01,19.5128358 25.6239598,19.9355072 25.1266211,19.9932723 L25.01,20 C24.4477153,20 24,19.5522847 24,19 C24,18.4871642 24.3860402,18.0644928 24.8833789,18.0067277 L25.01,18 Z" id="Combined-Shape" ></path>
    </g>
</svg>
