<svg viewBox="0 0 44 44" version="1.1" xmlns="http://www.w3.org/2000/svg" xmlns:xlink="http://www.w3.org/1999/xlink">
    <g id="ui/feather/gbp" stroke="none" stroke-width="1" fill-rule="evenodd">
        <path d="M29,17.0000031 C29,10.3333367 19,10.3333367 19,17.0000031 C19,17.5522872 19.4477153,18.0000031 20,18.0000031 C20.5522847,18.0000031 21,17.5522872 21,17.0000031 C21,13.0000031 27,13.0000031 27,17.0000031 C27,17.5522872 27.4477153,18.0000031 28,18.0000031 C28.5522847,18.0000031 29,17.5522872 29,17.0000031 Z" id="Path"></path>
        <path d="M19,17 L19,27 C19,33.6666333 29,33.6666333 29,27 C29,26.4477153 28.5522847,26 28,26 C27.4477153,26 27,26.4477153 27,27 C27,30.9999667 21,30.9999667 21,27 L21,17 C21,16.4477153 20.5522847,16 20,16 C19.4477153,16 19,16.4477153 19,17 Z" id="Path"></path>
        <path d="M16,23 L26,23 C26.5522847,23 27,22.5522847 27,22 C27,21.4477153 26.5522847,21 26,21 L16,21 C15.4477153,21 15,21.4477153 15,22 C15,22.5522847 15.4477153,23 16,23 Z" id="Path"></path>
        <path d="M19,27 C19,28.8638883 17.7227191,29.9995695 16.00079,30 C15.4485052,30.0001381 15.0009019,30.4479653 15.00104,31.00025 C15.0011781,31.5525348 15.4490053,32.0001381 16.00129,32 C18.7785721,31.9993055 21,30.0241458 21,27 C21,26.4477153 20.5522847,26 20,26 C19.4477153,26 19,26.4477153 19,27 Z" id="Path"></path>
    </g>
</svg>
