<svg viewBox="0 0 44 44" version="1.1" xmlns="http://www.w3.org/2000/svg" xmlns:xlink="http://www.w3.org/1999/xlink">
    <g id="ui/feather/globe" stroke="none" stroke-width="1" fill-rule="evenodd">
        <path d="M22,11 C28.0751322,11 33,15.9248678 33,22 C33,28.0751322 28.0751322,33 22,33 C15.9248678,33 11,28.0751322 11,22 C11,15.9248678 15.9248678,11 22,11 L22,11 Z M17.0527939,23.0010636 L13.0550057,23.0006955 C13.4683563,26.7372697 16.1692149,29.7842959 19.726075,30.7102675 C18.2052792,28.4233136 17.2816619,25.7770381 17.0527939,23.0010636 Z M30.9449943,23.0006955 L26.9498422,23.0008226 C26.7255335,25.7635472 25.8008579,28.4154858 24.2745676,30.7097575 C27.8312897,29.7837266 30.5316823,26.7369207 30.9449943,23.0006955 Z M24.945194,23.0003647 L19.0576542,23.0006768 C19.3089592,25.713613 20.3304698,28.2982679 22.0000219,30.4492318 C23.6759302,28.2904611 24.6988433,25.6975901 24.945194,23.0003647 Z M19.7254324,13.2902425 L19.6892238,13.2994101 C16.1502553,14.2368597 13.4664478,17.2761888 13.0548953,21.0003032 L17.0500766,21.0001782 C17.2742432,18.2370933 18.1989578,15.5847913 19.7254324,13.2902425 Z M21.9999781,13.5507682 L21.7596908,13.8693483 C20.2260407,15.9627089 19.2889108,18.4344616 19.0547146,21.0006358 L24.9424384,21.0003233 C24.703573,18.4197036 23.7678021,15.9551205 22.240269,13.8694319 L21.9999781,13.5507682 Z M24.273925,13.2897325 L24.4629614,13.5806352 C25.8714653,15.800102 26.728192,18.3405148 26.9472885,20.9999359 L30.9451047,21.0003032 C30.5321249,17.2632732 27.831102,14.2157866 24.273925,13.2897325 Z" id="Combined-Shape"></path>
    </g>
</svg>
