<svg viewBox="0 0 44 44" version="1.1" xmlns="http://www.w3.org/2000/svg" xmlns:xlink="http://www.w3.org/1999/xlink">
    <g id="ui/feather/lock" stroke="none" stroke-width="1" fill-rule="evenodd">
        <path d="M22,11 C25.3137085,11 28,13.6862915 28,17 L28,17 L28,20 L29,20 C30.6568542,20 32,21.3431458 32,23 L32,30 C32,31.6568542 30.6568542,33 29,33 L15,33 C13.3431458,33 12,31.6568542 12,30 L12,23 C12,21.3431458 13.3431458,20 15,20 L16,20 L16,17 C16,13.7616031 18.5655749,11.1224282 21.7750617,11.0041385 Z M29,22 L15,22 C14.4477153,22 14,22.4477153 14,23 L14,30 C14,30.5522847 14.4477153,31 15,31 L29,31 C29.5522847,31 30,30.5522847 30,30 L30,23 C30,22.4477153 29.5522847,22 29,22 Z M22,13 C19.790861,13 18,14.790861 18,17 L18,17 L18,20 L26,20 L26,17 C26,14.8578046 24.3160315,13.1089211 22.1996403,13.0048953 Z" id="Combined-Shape"></path>
    </g>
</svg>
