<svg viewBox="0 0 44 44" version="1.1" xmlns="http://www.w3.org/2000/svg" xmlns:xlink="http://www.w3.org/1999/xlink">
    <g id="ui/feather/medall" stroke="none" stroke-width="1" fill-rule="evenodd">
        <path d="M15.7,12 L28.3,12 C28.5754126,12 28.8367615,12.1134612 29.0243131,12.3105167 L29.1,12.4 L31.8302545,16.0424312 L31.8811882,16.1268589 L31.9451466,16.2725207 L31.9792082,16.3970019 L31.9952516,16.5020284 L31.9998036,16.5765973 C32.0016385,16.6509731 31.9951719,16.725852 31.9801106,16.7998078 L31.9417014,16.9372588 L31.9028811,17.0303632 C31.8831077,17.0717709 31.8609054,17.1110442 31.8362467,17.1485589 L26.7304496,25.1789568 C26.9404347,25.7395555 27.05,26.337523 27.05,26.95 C27.05,29.7390847 24.7890847,32 22,32 C19.2109499,32 16.95,29.7390694 16.95,26.95 C16.95,26.3375469 17.0595675,25.739591 17.2695465,25.1789896 L12.1637533,17.1485589 L12.1286361,17.0909965 L12.0748752,16.9801077 L12.0354789,16.8650102 L12.0199643,16.7998061 L12.0037128,16.6883614 L12.0017226,16.5394755 L12.0164307,16.4182488 L12.0608545,16.255811 L12.1188645,16.1267251 L12.1519935,16.0695761 L12.2255892,15.9672689 L14.9,12.4 C15.0652476,12.1796699 15.3128258,12.0386675 15.5830012,12.0068595 L15.7,12 L28.3,12 L15.7,12 Z M22,23.9 L21.7977465,23.90664 C20.7263278,23.9771585 19.7781564,24.6044356 19.2883309,25.552004 C19.0670011,25.9801482 18.95,26.4556074 18.95,26.95 C18.95,28.6344961 20.3155156,30 22,30 C23.6845153,30 25.05,28.6345153 25.05,26.95 C25.05,26.526211 24.9640447,26.1163605 24.8001156,25.7383272 L24.7116903,25.5520448 L24.6145379,25.3781472 C24.1028426,24.5282069 23.2066987,23.9727519 22.2022516,23.90664 L22,23.9 Z M17.819,17.6 L14.821,17.6 L18.4691718,23.3387954 C19.0190138,22.8011698 19.6865322,22.3938423 20.4216926,22.1521547 L17.819,17.6 Z M29.179,17.6 L26.18,17.6 L23.578302,22.1521557 C24.3134623,22.3938442 24.9809834,22.8011727 25.5308271,23.338798 L29.179,17.6 Z M23.876,17.6 L20.123,17.6 L21.999,20.884 L23.876,17.6 Z M28.999,15.6 L27.8,14 L16.2,14 L15,15.6 L28.999,15.6 Z" id="Shape"></path>
    </g>
</svg>
