<svg viewBox="0 0 44 44" version="1.1" xmlns="http://www.w3.org/2000/svg" xmlns:xlink="http://www.w3.org/1999/xlink">
    <g id="ui/feather/meh" stroke="none" stroke-width="1" fill-rule="evenodd">
        <path d="M22,11 C28.0751322,11 33,15.9248678 33,22 C33,28.0751322 28.0751322,33 22,33 C15.9248678,33 11,28.0751322 11,22 C11,15.9248678 15.9248678,11 22,11 Z M22,13 C17.0294373,13 13,17.0294373 13,22 C13,26.9705627 17.0294373,31 22,31 C26.9705627,31 31,26.9705627 31,22 C31,17.0294373 26.9705627,13 22,13 Z M26,24 C26.5522847,24 27,24.4477153 27,25 C27,25.5522847 26.5522847,26 26,26 L26,26 L18,26 C17.4477153,26 17,25.5522847 17,25 C17,24.4477153 17.4477153,24 18,24 L18,24 Z M19,18 L19.1266211,18.0067277 C19.6239598,18.0644928 20.01,18.4871642 20.01,19 C20.01,19.5522847 19.5622847,20 19,20 C18.4477153,20 18,19.5522847 18,19 C18,18.4477153 18.4477153,18 19,18 L19,18 Z M25,18 L25.1266211,18.0067277 C25.6239598,18.0644928 26.01,18.4871642 26.01,19 C26.01,19.5522847 25.5622847,20 25,20 C24.4477153,20 24,19.5522847 24,19 C24,18.4477153 24.4477153,18 25,18 L25,18 Z" id="Combined-Shape"></path>
    </g>
</svg>
