<svg viewBox="0 0 44 44" version="1.1" xmlns="http://www.w3.org/2000/svg" xmlns:xlink="http://www.w3.org/1999/xlink">
    <g id="ui/feather/menu" stroke="none" stroke-width="1" fill-rule="evenodd">
        <path d="M13,27 L31,27 C31.5522847,27 32,27.4477153 32,28 C32,28.5128358 31.6139598,28.9355072 31.1166211,28.9932723 L31,29 L13,29 C12.4477153,29 12,28.5522847 12,28 C12,27.4871642 12.3860402,27.0644928 12.8833789,27.0067277 L13,27 L31,27 L13,27 Z M13,21 L31,21 C31.5522847,21 32,21.4477153 32,22 C32,22.5128358 31.6139598,22.9355072 31.1166211,22.9932723 L31,23 L13,23 C12.4477153,23 12,22.5522847 12,22 C12,21.4871642 12.3860402,21.0644928 12.8833789,21.0067277 L13,21 Z M13,15 L31,15 C31.5522847,15 32,15.4477153 32,16 C32,16.5128358 31.6139598,16.9355072 31.1166211,16.9932723 L31,17 L13,17 C12.4477153,17 12,16.5522847 12,16 C12,15.4871642 12.3860402,15.0644928 12.8833789,15.0067277 L13,15 Z" id="Combined-Shape"></path>
    </g>
</svg>
