<svg viewBox="0 0 44 44" version="1.1" xmlns="http://www.w3.org/2000/svg" xmlns:xlink="http://www.w3.org/1999/xlink">
    <g id="ui/feather/more-vertical" stroke="none" stroke-width="1" fill-rule="evenodd">
        <path d="M22,27 C23.1045695,27 24,27.8954305 24,29 C24,30.1045695 23.1045695,31 22,31 C20.8954305,31 20,30.1045695 20,29 C20,27.8954305 20.8954305,27 22,27 Z M22,20 C23.1045695,20 24,20.8954305 24,22 C24,23.1045695 23.1045695,24 22,24 C20.8954305,24 20,23.1045695 20,22 C20,20.8954305 20.8954305,20 22,20 Z M22,13 C23.1045695,13 24,13.8954305 24,15 C24,16.1045695 23.1045695,17 22,17 C20.8954305,17 20,16.1045695 20,15 C20,13.8954305 20.8954305,13 22,13 Z" id="Combined-Shape"></path>
    </g>
</svg>
