<svg viewBox="0 0 44 44" version="1.1" xmlns="http://www.w3.org/2000/svg" xmlns:xlink="http://www.w3.org/1999/xlink">
    <g id="ui/feather/occupancy" stroke="none" stroke-width="1" fill-rule="evenodd">
        <path d="M23,24 C25.7614237,24 28,26.2385763 28,29 L28,29 L28,31 C28,31.5522847 27.5522847,32 27,32 C26.4477153,32 26,31.5522847 26,31 L26,31 L26,29 C26,27.3431458 24.6568542,26 23,26 L23,26 L15,26 C13.3431458,26 12,27.3431458 12,29 L12,29 L12,31 C12,31.5522847 11.5522847,32 11,32 C10.4477153,32 10,31.5522847 10,31 L10,31 L10,29 C10,26.2385763 12.2385763,24 15,24 L15,24 Z M29.0317541,24.8800003 C29.1698251,24.3452528 29.7152523,24.0236831 30.2499997,24.1617541 C32.4562482,24.7314043 33.9983001,26.7206513 34,29 L34,29 L34,31 C34,31.5522847 33.5522847,32 33,32 C32.4477153,32 32,31.5522847 32,31 L32,31 L32.0000003,29.0007459 C31.9989805,27.6335842 31.0737494,26.440036 29.7500003,26.0982459 C29.2152528,25.9601749 28.8936831,25.4147477 29.0317541,24.8800003 Z M19,12 C21.7614237,12 24,14.2385763 24,17 C24,19.7614237 21.7614237,22 19,22 C16.2385763,22 14,19.7614237 14,17 C14,14.2385763 16.2385763,12 19,12 Z M25.03125,12.8819608 C25.1682383,12.346935 25.7130133,12.0242617 26.2480392,12.16125 C28.4604327,12.7277122 30.0078433,14.7212389 30.0078433,17.005 C30.0078433,19.2887611 28.4604327,21.2822878 26.2480392,21.84875 C25.7130133,21.9857383 25.1682383,21.663065 25.03125,21.1280392 C24.8942617,20.5930133 25.216935,20.0482383 25.7519608,19.91125 C27.0793969,19.5713727 28.0078433,18.3752566 28.0078433,17.005 C28.0078433,15.6347434 27.0793969,14.4386273 25.7519608,14.09875 C25.216935,13.9617617 24.8942617,13.4169867 25.03125,12.8819608 Z M19,14 C17.3431458,14 16,15.3431458 16,17 C16,18.6568542 17.3431458,20 19,20 C20.6568542,20 22,18.6568542 22,17 C22,15.3431458 20.6568542,14 19,14 Z" id="Combined-Shape"></path>
    </g>
</svg>
