<svg viewBox="0 0 44 44" version="1.1" xmlns="http://www.w3.org/2000/svg" xmlns:xlink="http://www.w3.org/1999/xlink">
    <g id="ui/feather/packs" stroke="none" stroke-width="1" fill-rule="evenodd">
        <path d="M26.5,11 C28.4329966,11 30,12.5670034 30,14.5 C30,15.037207 29.8789705,15.5461461 29.6626913,16.0010375 L32,16 C32.5522847,16 33,16.4477153 33,17 L33,22 C33,22.5522847 32.5522847,23 32,23 L31,23 L31,32 C31,32.5128358 30.6139598,32.9355072 30.1166211,32.9932723 L30,33 L14,33 C13.4477153,33 13,32.5522847 13,32 L13,32 L13,23 L12,23 C11.4477153,23 11,22.5522847 11,22 L11,17 C11,16.4477153 11.4477153,16 12,16 L14.3373087,16.0010375 C14.1210295,15.5461461 14,15.037207 14,14.5 C14,12.5670034 15.5670034,11 17.5,11 C19.4608557,11 20.9214191,12.1684508 21.9387159,14.0180813 L22,14.136 L22.0612841,14.0180813 C23.0361935,12.2455187 24.4182003,11.0985535 26.2574946,11.0060504 Z M21,23 L15,23 L15,31 L21,31 L21,23 Z M29,23 L23,23 L23,31 L29,31 L29,23 Z M21,18 L13,18 L13,21 L21,21 L21,18 Z M31,18 L23,18 L23,21 L31,21 L31,18 Z M17.5,13 C16.6715729,13 16,13.6715729 16,14.5 C16,15.3284271 16.6715729,16 17.5,16 L20.654257,16 L20.5131761,15.6525663 C20.4141746,15.4230155 20.3052539,15.1982274 20.1862841,14.9819187 C19.4848309,13.7065492 18.6016443,13 17.5,13 Z M26.5,13 C25.3983557,13 24.5151691,13.7065492 23.8137159,14.9819187 C23.6352613,15.3063817 23.4794169,15.6499234 23.3457449,16 L23.3457449,16 L26.5,16 C27.3284271,16 28,15.3284271 28,14.5 C28,13.6715729 27.3284271,13 26.5,13 Z" id="Combined-Shape"></path>
    </g>
</svg>
