<svg viewBox="0 0 44 44" version="1.1" xmlns="http://www.w3.org/2000/svg" xmlns:xlink="http://www.w3.org/1999/xlink">
    <g id="ui/feather/phone" stroke="none" stroke-width="1" fill-rule="evenodd">
        <path d="M33.0000165,29.915941 C33.0034205,30.7606587 32.6505637,31.5676786 32.0281086,32.1387383 C31.4056534,32.7097981 30.5712877,32.9919732 29.7119777,32.9141485 C26.4793206,32.5628939 23.3741258,31.4582649 20.6536785,29.6940138 C18.1136004,28.0799425 15.9600575,25.9263996 14.3507201,23.3936996 C12.5753004,20.6530797 11.4704206,17.5327839 11.1240583,14.2700004 C11.0482681,13.4313089 11.3284663,12.5993791 11.8962069,11.977432 C12.4638979,11.3555394 13.2668227,11.0008428 14.11,10.9998046 L17.1002563,10.9998046 C18.60602,10.9852767 19.8894155,12.089041 20.1014144,13.5892425 C20.2181758,14.4745374 20.4347136,15.3437819 20.7460523,16.1781391 C21.1581548,17.2744517 20.8945749,18.5103485 20.0671068,19.3471068 L19.3500142,20.0641994 C20.5258702,21.9088481 22.0911572,23.4741344 23.9358065,24.6499895 L24.6568609,23.9289477 C25.4896515,23.1054251 26.7255483,22.8418452 27.8196048,23.2531028 C28.6562181,23.5652864 29.5254626,23.7818242 30.4196923,23.899805 C31.8633811,24.1034742 32.941632,25.3117541 32.9982864,26.750225 L33.0000165,29.915941 Z M31.0000084,26.92 L30.9965435,26.779453 C30.9552744,26.3226128 30.6051008,25.9457628 30.1492425,25.8814144 C29.1144045,25.7449298 28.0983282,25.4918147 27.1181391,25.1260523 C26.7527016,24.9886848 26.340736,25.0765448 26.0671068,25.3471068 L24.7971068,26.6171068 C24.4787938,26.9354198 23.9870293,27.0018074 23.5957055,26.7792945 C20.935688,25.2667668 18.7332332,23.064312 17.2207055,20.4042945 C16.9981926,20.0129707 17.0645802,19.5212062 17.3828932,19.2028932 L18.6489477,17.9368609 C18.9234552,17.659264 19.0113152,17.2472984 18.8731028,16.8796048 C18.5081853,15.9016718 18.2550702,14.8855955 18.1198416,13.8599516 C18.049591,13.3629275 17.621742,12.9949626 17.11,12.9998525 L14.1111169,12.9998525 C13.8303063,13.0002147 13.5625812,13.1184838 13.3733246,13.3258101 C13.1840777,13.5331258 13.0906783,13.8104357 13.1144087,14.0744004 C13.4260654,17.0092053 14.4246557,19.8293283 16.0340138,22.3136785 C17.4906147,24.6059441 19.4340559,26.5493853 21.7341012,28.0109804 C24.1998725,29.6100241 27.0063472,30.6083877 29.9100082,30.924059 C30.1904402,30.949403 30.4685621,30.8553447 30.6760472,30.6649914 C30.8835322,30.4746382 31.0011511,30.2056315 31.0000084,29.92 L31.0000084,26.92 Z" id="Path"></path>
    </g>
</svg>
