<svg viewBox="0 0 44 44" version="1.1" xmlns="http://www.w3.org/2000/svg" xmlns:xlink="http://www.w3.org/1999/xlink">
    <g id="ui/feather/photo" stroke="none" stroke-width="1" fill-rule="evenodd">
        <path d="M29,12 C30.6568542,12 32,13.3431458 32,15 L32,29 C32,30.6568542 30.6568542,32 29,32 L15,32 L14.9419598,31.9983247 C14.9416294,31.9983056 14.941299,31.9982863 14.9409686,31.9982669 L15,32 C13.3431458,32 12,30.6568542 12,29 L12,15 C12,13.3431458 13.3431458,12 15,12 L29,12 Z M26,21.4142136 L17.414,30 L29,30 C29.5522847,30 30,29.5522847 30,29 L30,25.415 L26,21.4142136 Z M29,14 L15,14 C14.4477153,14 14,14.4477153 14,15 L14,29 C14,29.4289102 14.2700279,29.794752 14.6493566,29.9367986 L25.2928932,19.2928932 C25.6834175,18.9023689 26.3165825,18.9023689 26.7071068,19.2928932 L26.7071068,19.2928932 L30,22.585 L30,15 C30,14.4477153 29.5522847,14 29,14 Z M18.5,16 C19.8807119,16 21,17.1192881 21,18.5 C21,19.8807119 19.8807119,21 18.5,21 C17.1192881,21 16,19.8807119 16,18.5 C16,17.1192881 17.1192881,16 18.5,16 Z M18.5,18 C18.2238576,18 18,18.2238576 18,18.5 C18,18.7761424 18.2238576,19 18.5,19 C18.7761424,19 19,18.7761424 19,18.5 C19,18.2238576 18.7761424,18 18.5,18 Z" id="Combined-Shape"></path>
    </g>
</svg>
