<svg viewBox="0 0 44 44" version="1.1" xmlns="http://www.w3.org/2000/svg" xmlns:xlink="http://www.w3.org/1999/xlink">
    <g id="ui/feather/restaurant44" stroke="none" stroke-width="1" fill-rule="evenodd">
        <path d="M20,11.2 C20.5128358,11.2 20.9355072,11.5860402 20.9932723,12.0833789 L21,12.2 L21,16.2 C21,18.0635617 19.7255992,19.6294778 18.0007599,20.0737862 L18,30.2 L17.9932722,30.3166239 C17.9355065,30.813973 17.5128314,31.2 17,31.2 C16.4871686,31.2 16.0644935,30.813973 16.0067278,30.3166239 L16,30.2 L16.0003913,20.0740826 C14.3369353,19.6461172 13.0921603,18.1750266 13.0048953,16.39964 L13,16.2 L13,12.2 C13,11.6477153 13.4477153,11.2 14,11.2 C14.5128358,11.2 14.9355072,11.5860402 14.9932723,12.0833789 L15,12.2 L15,16.2 C15,16.9402496 15.402168,17.5865721 15.9999294,17.9323928 L16,12.2 L16.0067278,12.0833779 C16.0644935,11.5860357 16.4871686,11.2 17,11.2 C17.5128314,11.2 17.9355065,11.5860357 17.9932722,12.0833779 L18,12.2 L18.0006733,17.9320439 C18.557568,17.6096066 18.9445641,17.0262968 18.9945142,16.3492618 L19,16.2 L19,12.2 C19,11.6477153 19.4477153,11.2 20,11.2 Z M26,11 L26.199637,11.0048953 C28.2477252,11.1055654 29.8909046,12.7466841 29.994785,14.7939605 L30,15 L30,22 L29.9932725,22.1166239 C29.9399525,22.5757153 29.5757153,22.9399525 29.1166239,22.9932725 L29,23 L26,23 L26,30 L25.9932725,30.1166239 C25.9355092,30.613973 25.51285,31 25,31 C24.48715,31 24.0644908,30.613973 24.0067275,30.1166239 L24,30 L24,12 L24.0067275,11.8833798 C24.0600475,11.4243009 24.4242847,11.06005 24.8833761,11.0067278 L25,11 L26,11 Z M26,13 L26,21 L28,21 L28,15 L27.9945144,14.8507376 C27.9181678,13.8158773 27.0543909,13 26,13 Z" id="Combined-Shape"></path>
    </g>
</svg>
