<svg viewBox="0 0 44 44" version="1.1" xmlns="http://www.w3.org/2000/svg" xmlns:xlink="http://www.w3.org/1999/xlink">
    <g id="ui/feather/search" stroke="none" stroke-width="1" fill-rule="evenodd">
        <path d="M21,12 C25.9705627,12 30,16.0294373 30,21 C30,23.124779 29.2636898,25.0775836 28.0323074,26.6171757 L31.7071068,30.2928932 C32.0976311,30.6834175 32.0976311,31.3165825 31.7071068,31.7071068 C31.3165825,32.0976311 30.6834175,32.0976311 30.2928932,31.7071068 L30.2928932,31.7071068 L26.6171757,28.0323074 C25.0775836,29.2636898 23.124779,30 21,30 C16.0294373,30 12,25.9705627 12,21 C12,16.0294373 16.0294373,12 21,12 Z M21,14 C17.1340068,14 14,17.1340068 14,21 C14,24.8659932 17.1340068,28 21,28 C22.8904747,28 24.6059153,27.25059 25.8654514,26.0326404 L25.9428932,25.9428932 C25.9713525,25.914434 26.0011003,25.8880487 26.031949,25.8637373 C27.25059,24.6059153 28,22.8904747 28,21 C28,17.1340068 24.8659932,14 21,14 Z" id="Combined-Shape"></path>
    </g>
</svg>
