<svg width="102" height="18" viewBox="0 0 102 18" fill="none" xmlns="http://www.w3.org/2000/svg">
    <path d="M6.36001 17.3201C5.20001 17.3201 4.06668 17.1934 2.96001 16.9401C1.86668 16.6734 0.966676 16.3201 0.26001 15.8801L1.78001 12.4401C2.44668 12.8267 3.19334 13.1401 4.02001 13.3801C4.84668 13.6067 5.64001 13.7201 6.40001 13.7201C7.05334 13.7201 7.52001 13.6601 7.80001 13.5401C8.08001 13.4067 8.22001 13.2134 8.22001 12.9601C8.22001 12.6667 8.03334 12.4467 7.66001 12.3001C7.30001 12.1534 6.70001 11.9934 5.86001 11.8201C4.78001 11.5934 3.88001 11.3534 3.16001 11.1001C2.44001 10.8334 1.81334 10.4067 1.28001 9.82008C0.746677 9.22008 0.48001 8.41341 0.48001 7.40008C0.48001 6.52008 0.726676 5.72008 1.22001 5.00008C1.71334 4.28008 2.44668 3.71341 3.42001 3.30008C4.40668 2.88674 5.60001 2.68008 7.00001 2.68008C7.96001 2.68008 8.90001 2.78675 9.82001 3.00008C10.7533 3.20008 11.5733 3.50008 12.28 3.90008L10.86 7.32008C9.48668 6.62675 8.18668 6.28008 6.96001 6.28008C5.74668 6.28008 5.14001 6.57341 5.14001 7.16008C5.14001 7.44008 5.32001 7.65341 5.68001 7.80008C6.04001 7.93341 6.63334 8.08008 7.46001 8.24008C8.52668 8.44008 9.42668 8.67341 10.16 8.94008C10.8933 9.19341 11.5267 9.61341 12.06 10.2001C12.6067 10.7867 12.88 11.5867 12.88 12.6001C12.88 13.4801 12.6333 14.2801 12.14 15.0001C11.6467 15.7067 10.9067 16.2734 9.92001 16.7001C8.94668 17.1134 7.76001 17.3201 6.36001 17.3201Z" fill="#111111"/>
    <path d="M18.9245 13.8601C19.4045 13.8601 19.8045 13.8001 20.1245 13.6801C20.4579 13.5601 20.8179 13.3534 21.2045 13.0601L23.5645 15.4401C22.4712 16.6134 20.8779 17.2001 18.7845 17.2001C17.4645 17.2001 16.3045 16.9601 15.3045 16.4801C14.3045 15.9867 13.5312 15.3067 12.9845 14.4401C12.4379 13.5734 12.1645 12.6001 12.1645 11.5201C12.1645 10.4267 12.4379 9.45341 12.9845 8.60008C13.5312 7.73341 14.2779 7.06008 15.2245 6.58008C16.1845 6.10008 17.2579 5.86008 18.4445 5.86008C19.5245 5.86008 20.5179 6.08008 21.4245 6.52008C22.3312 6.94674 23.0512 7.58675 23.5845 8.44008C24.1179 9.28008 24.3845 10.2867 24.3845 11.4601L16.9045 12.9001C17.2379 13.5401 17.9112 13.8601 18.9245 13.8601ZM18.4645 8.94008C17.9445 8.94008 17.5179 9.09341 17.1845 9.40008C16.8645 9.70675 16.6712 10.1601 16.6045 10.7601L20.1045 10.0801C19.9845 9.73341 19.7779 9.46008 19.4845 9.26008C19.2045 9.04675 18.8645 8.94008 18.4645 8.94008Z" fill="#111111"/>
    <path d="M32.0109 5.86008C33.3576 5.86008 34.4376 6.26675 35.2509 7.08008C36.0776 7.89341 36.491 9.12008 36.491 10.7601V17.0001H31.9709V11.5401C31.9709 10.2867 31.5243 9.66008 30.6309 9.66008C30.1243 9.66008 29.7109 9.84008 29.3909 10.2001C29.0843 10.5467 28.9309 11.1001 28.9309 11.8601V17.0001H24.4109V6.06008H28.7109V7.14008C29.1376 6.71341 29.6309 6.39341 30.1909 6.18008C30.7509 5.96675 31.3576 5.86008 32.0109 5.86008Z" fill="#111111"/>
    <path d="M44.5739 16.6201C43.8939 17.0067 42.9673 17.2001 41.7939 17.2001C40.2606 17.2001 39.0806 16.8334 38.2539 16.1001C37.4272 15.3534 37.0139 14.2401 37.0139 12.7601V3.60008H41.5339V6.66008H43.7739V9.96008H41.5339V12.7201C41.5339 13.0534 41.6206 13.3134 41.7939 13.5001C41.9673 13.6867 42.1939 13.7801 42.4739 13.7801C42.8606 13.7801 43.2006 13.6801 43.4939 13.4801L44.5739 16.6201Z" fill="#111111"/>
    <path d="M44.3063 6.06008H48.8263V17.0001H44.3063V6.06008ZM46.5663 5.18008C45.7529 5.18008 45.0929 4.96675 44.5863 4.54008C44.0929 4.10008 43.8463 3.54674 43.8463 2.88008C43.8463 2.21341 44.0929 1.66674 44.5863 1.24008C45.0929 0.800078 45.7529 0.580078 46.5663 0.580078C47.3929 0.580078 48.0529 0.786745 48.5463 1.20008C49.0396 1.61341 49.2863 2.14674 49.2863 2.80008C49.2863 3.49341 49.0396 4.06674 48.5463 4.52008C48.0529 4.96008 47.3929 5.18008 46.5663 5.18008Z" fill="#111111"/>
    <path d="M53.7297 7.24008C54.5297 6.32008 55.7097 5.86008 57.2697 5.86008V9.86008C56.9097 9.80675 56.5764 9.78008 56.2697 9.78008C54.723 9.78008 53.9497 10.5667 53.9497 12.1401V17.0001H49.4297V6.06008H53.7297V7.24008Z" fill="#111111"/>
    <path d="M69.0531 6.06008V17.0001H64.7531V16.1001C64.0998 16.8334 63.0998 17.2001 61.7531 17.2001C60.7931 17.2001 59.9065 16.9734 59.0931 16.5201C58.2931 16.0534 57.6531 15.3867 57.1731 14.5201C56.7065 13.6534 56.4731 12.6534 56.4731 11.5201C56.4731 10.3867 56.7065 9.39341 57.1731 8.54008C57.6531 7.67341 58.2931 7.01341 59.0931 6.56008C59.9065 6.09341 60.7931 5.86008 61.7531 5.86008C62.9665 5.86008 63.8931 6.17341 64.5331 6.80008V6.06008H69.0531ZM62.8331 13.6801C63.3531 13.6801 63.7798 13.4934 64.1131 13.1201C64.4465 12.7334 64.6131 12.2001 64.6131 11.5201C64.6131 10.8401 64.4465 10.3134 64.1131 9.94008C63.7798 9.56675 63.3531 9.38008 62.8331 9.38008C62.3131 9.38008 61.8865 9.56675 61.5531 9.94008C61.2198 10.3134 61.0531 10.8401 61.0531 11.5201C61.0531 12.2001 61.2198 12.7334 61.5531 13.1201C61.8865 13.4934 62.3131 13.6801 62.8331 13.6801Z" fill="#111111"/>
    <path d="M84.137 5.86008C85.457 5.86008 86.5104 6.26675 87.297 7.08008C88.097 7.89341 88.497 9.12008 88.497 10.7601V17.0001H83.977V11.5401C83.977 10.2867 83.5704 9.66008 82.757 9.66008C82.3304 9.66008 81.9837 9.82008 81.717 10.1401C81.4637 10.4601 81.337 10.9667 81.337 11.6601V17.0001H76.817V11.5401C76.817 10.2867 76.4104 9.66008 75.597 9.66008C75.1704 9.66008 74.8237 9.82008 74.557 10.1401C74.3037 10.4601 74.177 10.9667 74.177 11.6601V17.0001H69.657V6.06008H73.957V7.08008C74.7704 6.26675 75.8037 5.86008 77.057 5.86008C77.7904 5.86008 78.4504 6.00008 79.037 6.28008C79.6237 6.54675 80.1037 6.96008 80.477 7.52008C80.917 6.98675 81.4504 6.58008 82.077 6.30008C82.7037 6.00674 83.3904 5.86008 84.137 5.86008Z" fill="#111111"/>
    <path d="M101.253 6.06008V17.0001H96.9531V16.1001C96.2998 16.8334 95.2998 17.2001 93.9531 17.2001C92.9931 17.2001 92.1065 16.9734 91.2931 16.5201C90.4931 16.0534 89.8531 15.3867 89.3731 14.5201C88.9065 13.6534 88.6731 12.6534 88.6731 11.5201C88.6731 10.3867 88.9065 9.39341 89.3731 8.54008C89.8531 7.67341 90.4931 7.01341 91.2931 6.56008C92.1065 6.09341 92.9931 5.86008 93.9531 5.86008C95.1665 5.86008 96.0931 6.17341 96.7331 6.80008V6.06008H101.253ZM95.0331 13.6801C95.5531 13.6801 95.9798 13.4934 96.3131 13.1201C96.6465 12.7334 96.8131 12.2001 96.8131 11.5201C96.8131 10.8401 96.6465 10.3134 96.3131 9.94008C95.9798 9.56675 95.5531 9.38008 95.0331 9.38008C94.5131 9.38008 94.0865 9.56675 93.7531 9.94008C93.4198 10.3134 93.2531 10.8401 93.2531 11.5201C93.2531 12.2001 93.4198 12.7334 93.7531 13.1201C94.0865 13.4934 94.5131 13.6801 95.0331 13.6801Z" fill="#111111"/>
</svg>