<svg viewBox="0 0 44 44" version="1.1" xmlns="http://www.w3.org/2000/svg" xmlns:xlink="http://www.w3.org/1999/xlink">
    <g id="ui/feather/shopping" stroke="none" stroke-width="1" fill-rule="evenodd">
        <path d="M19,30 C20.1045695,30 21,30.8954305 21,32 C21,33.1045695 20.1045695,34 19,34 C17.8954305,34 17,33.1045695 17,32 C17,30.8954305 17.8954305,30 19,30 Z M30,30 C31.1045695,30 32,30.8954305 32,32 C32,33.1045695 31.1045695,34 30,34 C28.8954305,34 28,33.1045695 28,32 C28,30.8954305 28.8954305,30 30,30 Z M15,11 C15.476627,11 15.8870111,11.3363852 15.9805525,11.803743 L15.9805525,11.803743 L16.8204303,16 L33,16 C33.6273967,16 34.0998261,16.5710371 33.9822976,17.1873273 L33.9822976,17.1873273 L32.3808397,25.5848164 C32.0977343,27.0101637 30.8337638,28.02766 29.4,28 L29.4,28 L19.6991603,27.9998164 C18.2462362,28.02766 16.9822657,27.0101637 16.6994475,25.586257 L16.6994475,25.586257 L14.1803162,13 L11,13 C10.4477153,13 10,12.5522847 10,12 C10,11.4477153 10.4477153,11 11,11 L11,11 Z M31.7912753,18 L17.2207289,18 L18.6608397,25.1951836 C18.7552082,25.6702993 19.1765317,26.0094648 19.68,26 L19.68,26 L29.4191603,26.0001836 C29.9034683,26.0094648 30.3247918,25.6702993 30.4177024,25.2026727 L30.4177024,25.2026727 L31.7912753,18 Z" id="Combined-Shape"></path>
    </g>
</svg>
