<?xml version="1.0" encoding="UTF-8"?>
<svg viewBox="0 0 44 44" version="1.1" xmlns="http://www.w3.org/2000/svg" xmlns:xlink="http://www.w3.org/1999/xlink">
    <g id="ui/44/smile" stroke="none" stroke-width="1" >
        <path d="M22,11 C28.0751322,11 33,15.9248678 33,22 C33,28.0751322 28.0751322,33 22,33 C15.9248678,33 11,28.0751322 11,22 C11,15.9248678 15.9248678,11 22,11 Z M22,13 C17.0294373,13 13,17.0294373 13,22 C13,26.9705627 17.0294373,31 22,31 C26.9705627,31 31,26.9705627 31,22 C31,17.0294373 26.9705627,13 22,13 Z M26.6,23.2 C27.0418278,23.5313708 27.1313708,24.1581722 26.8,24.6 C26.5571182,24.9238424 26.1309689,25.36852 25.5256717,25.8087361 C24.5068925,26.5496664 23.3247669,27 22,27 C20.6752331,27 19.4931075,26.5496664 18.4743283,25.8087361 C17.8690311,25.36852 17.4428818,24.9238424 17.2,24.6 C16.8686292,24.1581722 16.9581722,23.5313708 17.4,23.2 C17.8418278,22.8686292 18.4686292,22.9581722 18.8,23.4 C18.9321182,23.5761576 19.2247189,23.88148 19.6506717,24.1912639 C20.3506425,24.7003336 21.1372669,25 22,25 C22.8627331,25 23.6493575,24.7003336 24.3493283,24.1912639 C24.6687929,23.958926 24.9132469,23.7290977 25.0712448,23.5543881 L25.2,23.4 C25.5313708,22.9581722 26.1581722,22.8686292 26.6,23.2 Z M19.01,18 C19.5622847,18 20.01,18.4477153 20.01,19 C20.01,19.5128358 19.6239598,19.9355072 19.1266211,19.9932723 L19.01,20 C18.4477153,20 18,19.5522847 18,19 C18,18.4871642 18.3860402,18.0644928 18.8833789,18.0067277 L19.01,18 Z M25.01,18 C25.5622847,18 26.01,18.4477153 26.01,19 C26.01,19.5128358 25.6239598,19.9355072 25.1266211,19.9932723 L25.01,20 C24.4477153,20 24,19.5522847 24,19 C24,18.4871642 24.3860402,18.0644928 24.8833789,18.0067277 L25.01,18 Z" id="Combined-Shape"></path>
    </g>
</svg>
