<svg viewBox="0 0 44 44" version="1.1" xmlns="http://www.w3.org/2000/svg" xmlns:xlink="http://www.w3.org/1999/xlink">
    <g id="ui/feather/user" stroke="none" stroke-width="1" fill-rule="evenodd">
        <path d="M26,24 C28.7614237,24 31,26.2385763 31,29 L31,29 L31,31 C31,31.5522847 30.5522847,32 30,32 C29.4477153,32 29,31.5522847 29,31 L29,31 L29,29 C29,27.3431458 27.6568542,26 26,26 L26,26 L18,26 C16.3431458,26 15,27.3431458 15,29 L15,29 L15,31 C15,31.5522847 14.5522847,32 14,32 C13.4477153,32 13,31.5522847 13,31 L13,31 L13,29 C13,26.2385763 15.2385763,24 18,24 L18,24 Z M22,12 C24.7614237,12 27,14.2385763 27,17 C27,19.7614237 24.7614237,22 22,22 C19.2385763,22 17,19.7614237 17,17 C17,14.2385763 19.2385763,12 22,12 Z M22,14 C20.3431458,14 19,15.3431458 19,17 C19,18.6568542 20.3431458,20 22,20 C23.6568542,20 25,18.6568542 25,17 C25,15.3431458 23.6568542,14 22,14 Z" id="Combined-Shape"></path>
    </g>
</svg>
