<svg viewBox="0 0 44 44" version="1.1" xmlns="http://www.w3.org/2000/svg" xmlns:xlink="http://www.w3.org/1999/xlink">
    <g id="ui/feather/video" stroke="none" stroke-width="1" fill-rule="evenodd">
        <path d="M24,14 C25.6568542,14 27,15.3431458 27,17 L27,20.056 L32.4187618,16.1862665 C33.0491127,15.7360159 33.9130249,16.1437129 33.9938729,16.8861839 L34,17 L34,27 C34,27.8133726 33.0806303,28.2864967 32.4187618,27.8137335 L32.4187618,27.8137335 L27,23.943 L27,27 C27,28.6568542 25.6568542,30 24,30 L13,30 C11.3431458,30 10,28.6568542 10,27 L10,17 C10,15.3431458 11.3431458,14 13,14 L24,14 Z M24,16 L13,16 C12.4477153,16 12,16.4477153 12,17 L12,27 C12,27.5522847 12.4477153,28 13,28 L24,28 C24.5522847,28 25,27.5522847 25,27 L25,17 C25,16.4477153 24.5522847,16 24,16 Z M32,18.9431893 L27.7204651,22 L32,25.0568107 L32,18.9431893 Z" id="Combined-Shape"></path>
    </g>
</svg>
