<svg viewBox="0 0 44 44" version="1.1" xmlns="http://www.w3.org/2000/svg" xmlns:xlink="http://www.w3.org/1999/xlink">
    <g id="ui/feather/zoom" stroke="none" stroke-width="1" fill-rule="evenodd">
        <path d="M31,25 C31.5128358,25 31.9355072,25.3860402 31.9932723,25.8833789 L32,26 L32,29 C32,30.5976809 30.75108,31.9036609 29.1762728,31.9949073 L29,32 L26,32 C25.4477153,32 25,31.5522847 25,31 C25,30.4871642 25.3860402,30.0644928 25.8833789,30.0067277 L26,30 L29,30 C29.5128358,30 29.9355072,29.6139598 29.9932723,29.1166211 L30,29 L30,26 C30,25.4477153 30.4477153,25 31,25 Z M13,25 C13.5128358,25 13.9355072,25.3860402 13.9932723,25.8833789 L14,26 L14,29 C14,29.5128358 14.3860402,29.9355072 14.8833789,29.9932723 L15,30 L18,30 C18.5522847,30 19,30.4477153 19,31 C19,31.5128358 18.6139598,31.9355072 18.1166211,31.9932723 L18,32 L15,32 C13.4023191,32 12.0963391,30.75108 12.0050927,29.1762728 L12,29 L12,26 C12,25.4477153 12.4477153,25 13,25 Z M18,12 C18.5522847,12 19,12.4477153 19,13 C19,13.5128358 18.6139598,13.9355072 18.1166211,13.9932723 L18,14 L15,14 C14.4871642,14 14.0644928,14.3860402 14.0067277,14.8833789 L14,15 L14,18 C14,18.5522847 13.5522847,19 13,19 C12.4871642,19 12.0644928,18.6139598 12.0067277,18.1166211 L12,18 L12,15 C12,13.4023191 13.24892,12.0963391 14.8237272,12.0050927 L15,12 L18,12 Z M29,12 C30.5976809,12 31.9036609,13.24892 31.9949073,14.8237272 L32,15 L32,18 C32,18.5522847 31.5522847,19 31,19 C30.4871642,19 30.0644928,18.6139598 30.0067277,18.1166211 L30,18 L30,15 C30,14.4871642 29.6139598,14.0644928 29.1166211,14.0067277 L29,14 L26,14 C25.4477153,14 25,13.5522847 25,13 C25,12.4871642 25.3860402,12.0644928 25.8833789,12.0067277 L26,12 L29,12 Z" id="Shape"></path>
    </g>
</svg>
