<?xml version="1.0" encoding="UTF-8"?>
<svg width="24px" height="24px" viewBox="0 0 24 24" version="1.1" xmlns="http://www.w3.org/2000/svg" xmlns:xlink="http://www.w3.org/1999/xlink">
    <title>icon/edit/24</title>
    <g id="icon/edit/24" stroke="none" stroke-width="1" fill="none" fill-rule="evenodd">
        <path d="M21.0009101,19.1213914 C21.5531949,19.1213914 22.0009101,19.5691067 22.0009101,20.1213914 C22.0009101,20.6736762 21.5531949,21.1213914 21.0009101,21.1213914 L21.0009101,21.1213914 L12.0009101,21.1213914 C11.4486254,21.1213914 11.0009101,20.6736762 11.0009101,20.1213914 C11.0009101,19.5691067 11.4486254,19.1213914 12.0009101,19.1213914 L12.0009101,19.1213914 Z M18.8087673,2.1064275 C19.8859101,2.39504707 20.7272545,3.23639142 21.015874,4.31353429 C21.3044936,5.39067715 20.9965402,6.53997491 20.2080169,7.32849822 L7.70801688,19.8284982 C7.57985806,19.956657 7.41927818,20.0475758 7.24344573,20.0915339 L3.24344573,21.0915339 C2.51106526,21.2746291 1.84767248,20.6112363 2.0307676,19.8788558 L3.0307676,15.8788558 C3.07472571,15.7030234 3.1656445,15.5424435 3.29380332,15.4142847 L15.7938033,2.91428466 L15.9457736,2.77209653 C16.725707,2.08959754 17.7989458,1.83584667 18.8087673,2.1064275 Z M17.2080169,4.32849822 L4.90387412,16.632641 L4.37527864,18.7470229 L6.48966056,18.2184274 L18.7938033,5.91428466 C19.0770768,5.63101119 19.1877077,5.21813112 19.0840224,4.83117238 C18.9803371,4.44421363 18.6780879,4.14196444 18.2911292,4.03827916 C17.9041704,3.93459387 17.4912903,4.04522475 17.2080169,4.32849822 Z" id="Combined-Shape" fill="#4D4D4D"></path>
    </g>
</svg>