<svg viewBox="0 0 24 24" xmlns="http://www.w3.org/2000/svg"><path d="m12 1c6.0751322 0 11 4.92486775 11 11 0 6.0751322-4.9248678 11-11 11-6.07513225 0-11-4.9248678-11-11 0-6.07513225 4.92486775-11 11-11zm0 2c-4.97056275 0-9 4.02943725-9 9 0 4.9705627 4.02943725 9 9 9 4.9705627 0 9-4.0294373 9-9 0-4.97056275-4.0294373-9-9-9zm0 10c1.3247669 0 2.5068925.4503336 3.5256717 1.1912639.6052972.4402161 1.0314465.8848937 1.2743283 1.2087361.3313708.4418278.2418278 1.0686292-.2 1.4s-1.0686292.2418278-1.4-.2c-.1321182-.1761576-.4247189-.48148-.8506717-.7912639-.6999708-.5090697-1.4865952-.8087361-2.3493283-.8087361s-1.6493575.2996664-2.3493283.8087361c-.42595283.3097839-.71855349.6151063-.8506717.7912639-.33137085.4418278-.9581722.5313708-1.4.2s-.53137085-.9581722-.2-1.4c.24288179-.3238424.66903113-.76852 1.2743283-1.2087361 1.01877923-.7409303 2.2009048-1.1912639 3.5256717-1.1912639zm-2.99-5c.55228475 0 1 .44771525 1 1 0 .51283584-.38604019.93550716-.88337887.99327227l-.11662113.00672773c-.56228475 0-1.01-.44771525-1.01-1 0-.51283584.38604019-.93550716.88337887-.99327227zm6 0c.5522847 0 1 .44771525 1 1 0 .51283584-.3860402.93550716-.8833789.99327227l-.1166211.00672773c-.5622847 0-1.01-.44771525-1.01-1 0-.51283584.3860402-.93550716.8833789-.99327227z" fill-rule="evenodd"/></svg>
