<?xml version="1.0" encoding="UTF-8"?>
<svg viewBox="0 0 24 24" version="1.1" xmlns="http://www.w3.org/2000/svg" xmlns:xlink="http://www.w3.org/1999/xlink">
    <g id="ui/24/info-" stroke="none" stroke-width="1" fill-rule="evenodd">
        <path d="M12,1 C18.0751322,1 23,5.92486775 23,12 C23,18.0751322 18.0751322,23 12,23 C5.92486775,23 1,18.0751322 1,12 C1,5.92486775 5.92486775,1 12,1 Z M12,3 C7.02943725,3 3,7.02943725 3,12 C3,16.9705627 7.02943725,21 12,21 C16.9705627,21 21,16.9705627 21,12 C21,7.02943725 16.9705627,3 12,3 Z M12,11 C12.5522847,11 13,11.4477153 13,12 L13,12 L13,16 C13,16.5522847 12.5522847,17 12,17 C11.4477153,17 11,16.5522847 11,16 L11,16 L11,12 C11,11.4477153 11.4477153,11 12,11 Z M12,7 C12.5522847,7 13,7.44771525 13,8 L13,8 L13,8.1 C13,8.65228475 12.5522847,9.1 12,9.1 C11.4477153,9.1 11,8.65228475 11,8.1 L11,8.1 L11,8 C11,7.44771525 11.4477153,7 12,7 Z" id="Combined-Shape"></path>
    </g>
</svg>
