<?xml version="1.0" encoding="UTF-8"?>
<svg  viewBox="0 0 24 24" version="1.1" xmlns="http://www.w3.org/2000/svg" xmlns:xlink="http://www.w3.org/1999/xlink">
    <g id="icon/smile/24" stroke="none" stroke-width="1" fill-rule="evenodd">
        <path d="M12,1 C18.0751322,1 23,5.92486775 23,12 C23,18.0751322 18.0751322,23 12,23 C5.92486775,23 1,18.0751322 1,12 C1,5.92486775 5.92486775,1 12,1 Z M12,3 C7.02943725,3 3,7.02943725 3,12 C3,16.9705627 7.02943725,21 12,21 C16.9705627,21 21,16.9705627 21,12 C21,7.02943725 16.9705627,3 12,3 Z M16.6,13.2 C17.0418278,13.5313708 17.1313708,14.1581722 16.8,14.6 C16.5571182,14.9238424 16.1309689,15.36852 15.5256717,15.8087361 C14.5068925,16.5496664 13.3247669,17 12,17 C10.6752331,17 9.49310753,16.5496664 8.4743283,15.8087361 C7.86903113,15.36852 7.44288179,14.9238424 7.2,14.6 C6.86862915,14.1581722 6.9581722,13.5313708 7.4,13.2 C7.8418278,12.8686292 8.46862915,12.9581722 8.8,13.4 C8.93211821,13.5761576 9.22471887,13.88148 9.6506717,14.1912639 C10.3506425,14.7003336 11.1372669,15 12,15 C12.8627331,15 13.6493575,14.7003336 14.3493283,14.1912639 C14.6687929,13.958926 14.9132469,13.7290977 15.0712448,13.5543881 L15.2,13.4 C15.5313708,12.9581722 16.1581722,12.8686292 16.6,13.2 Z M9.01,8 C9.56228475,8 10.01,8.44771525 10.01,9 C10.01,9.51283584 9.62395981,9.93550716 9.12662113,9.99327227 L9.01,10 C8.44771525,10 8,9.55228475 8,9 C8,8.48716416 8.38604019,8.06449284 8.88337887,8.00672773 L9.01,8 Z M15.01,8 C15.5622847,8 16.01,8.44771525 16.01,9 C16.01,9.51283584 15.6239598,9.93550716 15.1266211,9.99327227 L15.01,10 C14.4477153,10 14,9.55228475 14,9 C14,8.48716416 14.3860402,8.06449284 14.8833789,8.00672773 L15.01,8 Z" id="Combined-Shape"></path>
    </g>
</svg>
